<svg xmlns="http://www.w3.org/2000/svg" viewBox="0 0 32.64 30.9"><path d="M30.92,20.47H29.5V15a11.77,11.77,0,0,0-3.68-8.5,13,13,0,0,0-4.37-2.78,13.52,13.52,0,0,0-5.4-.89A13,13,0,0,0,7.2,6.74a12.22,12.22,0,0,0-3.59,8.62v.13a9,9,0,0,1-.51,3L1.76,18a7.82,7.82,0,0,0,.43-2.5v-.13a13.67,13.67,0,0,1,4-9.62A14.42,14.42,0,0,1,16,1.45a15,15,0,0,1,6,1A14.28,14.28,0,0,1,26.8,5.52,13.13,13.13,0,0,1,30.92,15Z" fill="#2c587a"></path><path d="M27.5,24.84H26.09V15a8.64,8.64,0,0,0-2.75-6.28,9.9,9.9,0,0,0-7.27-2.67A9.61,9.61,0,0,0,9.62,9,9.09,9.09,0,0,0,7,15.32v1.51a9.26,9.26,0,0,1-2.93,6.68l-1-1A7.72,7.72,0,0,0,5.6,16.83V15.32A10.51,10.51,0,0,1,8.6,8,10.94,10.94,0,0,1,16,4.68a11.32,11.32,0,0,1,8.31,3.05A10.06,10.06,0,0,1,27.5,15Z" fill="#2c587a"></path><path d="M22.46,28.67l-1.17-.8a7.62,7.62,0,0,0,1.38-4.37V15a5.52,5.52,0,0,0-1.79-4,6.38,6.38,0,0,0-4.75-1.67,6,6,0,0,0-5.69,5.95v2.89a9.24,9.24,0,0,1-2.93,6.68l-1-1A7.7,7.7,0,0,0,9,18.16V15.27A7.45,7.45,0,0,1,16,7.9,7.81,7.81,0,0,1,21.85,10,6.89,6.89,0,0,1,24.09,15V23.5A9,9,0,0,1,22.46,28.67Z" fill="#2c587a"></path><path d="M17.82,28.78l-1-1a7.71,7.71,0,0,0,2.43-5.59V15a2.62,2.62,0,0,0-2.71-2.51A2.62,2.62,0,0,0,13.85,15V19.5a9.26,9.26,0,0,1-2.93,6.68l-1-1a7.72,7.72,0,0,0,2.48-5.65V15a4,4,0,0,1,4.12-3.93A4,4,0,0,1,20.68,15v7.13A9.16,9.16,0,0,1,17.82,28.78Z" fill="#2c587a"></path><path d="M13.87,28l-1-1c3.07-2.82,3-6.43,2.95-10.25,0-.53,0-1.07,0-1.62h1.41c0,.54,0,1.08,0,1.6C17.34,20.61,17.4,24.71,13.87,28Z" fill="#2c587a"></path><polygon points="1.42 4.93 0 4.93 0 0 5.18 0 5.18 1.42 1.42 1.42 1.42 4.93" fill="#2c587a"></polygon><polygon points="32.64 4.93 31.22 4.93 31.22 1.42 27.46 1.42 27.46 0 32.64 0 32.64 4.93" fill="#2c587a"></polygon><polygon points="5.18 30.9 0 30.9 0 25.97 1.42 25.97 1.42 29.48 5.18 29.48 5.18 30.9" fill="#2c587a"></polygon><polygon points="32.64 30.9 27.46 30.9 27.46 29.48 31.22 29.48 31.22 25.97 32.64 25.97 32.64 30.9" fill="#2c587a"></polygon></svg>