<svg xmlns="http://www.w3.org/2000/svg" id="Layer_1" data-name="Layer 1" viewBox="0 0 558.19 443.58"><g id="NewGroupe0"><g id="NewGroup95-0"><path d="M1229.18,317.78H1109c-5.57,0-10.09,4-10.09,8.91s4.52,8.92,10.09,8.92h110.08V419c0,4.93,4.52,8.92,10.1,8.92s10.09-4,10.09-8.92V326.69c0-4.92-4.52-8.91-10.09-8.91Z" transform="translate(-681.08 -317.78)"></path><path d="M691.18,428.42c5.58,0,10.1-4,10.1-8.91V336.1H811.35c5.58,0,10.1-4,10.1-8.92s-4.52-8.91-10.1-8.91H691.18c-5.57,0-10.1,4-10.1,8.91v92.33c0,4.92,4.53,8.91,10.1,8.91Z" transform="translate(-681.08 -317.78)"></path><path d="M811.35,743.54H701.28V660.13c0-4.92-4.52-8.91-10.1-8.91s-10.1,4-10.1,8.91v92.32c0,4.92,4.53,8.91,10.1,8.91H811.35c5.58,0,10.1-4,10.1-8.91s-4.52-8.91-10.1-8.91Z" transform="translate(-681.08 -317.78)"></path><path d="M1229.18,650.73c-5.58,0-10.1,4-10.1,8.91v83.41H1109c-5.57,0-10.09,4-10.09,8.91s4.52,8.91,10.09,8.91h120.18c5.57,0,10.09-4,10.09-8.91V659.64c0-4.93-4.52-8.91-10.09-8.91Z" transform="translate(-681.08 -317.78)"></path><path d="M966,676.75c-87.08,0-157.92-62.53-157.92-139.39S878.94,398,966,398s157.92,62.53,157.92,139.39S1053.1,676.75,966,676.75Zm126-250.56c-33.64-29.69-78.37-46-126-46s-92.31,16.35-125.95,46S787.9,495.37,787.9,537.36s18.53,81.48,52.17,111.17S918.44,694.58,966,694.58s92.31-16.36,126-46.05,52.17-69.17,52.17-111.17-18.53-81.47-52.17-111.17Z" transform="translate(-681.08 -317.78)"></path><path d="M966,615.86c-49,0-88.93-35.22-88.93-78.5S917,458.86,966,458.86s88.93,35.22,88.93,78.5-39.89,78.5-88.93,78.5ZM966,441c-60.17,0-109.13,43.21-109.13,96.32s49,96.32,109.13,96.32,109.13-43.21,109.13-96.32S1026.19,441,966,441Z" transform="translate(-681.08 -317.78)"></path><path d="M966,554c-10.38,0-18.83-7.45-18.83-16.62s8.45-16.62,18.83-16.62,18.83,7.46,18.83,16.62S976.4,554,966,554Zm0-51.07c-21.52,0-39,15.46-39,34.45s17.51,34.45,39,34.45,39-15.45,39-34.45-17.51-34.45-39-34.45Z" transform="translate(-681.08 -317.78)"></path></g></g></svg>