<svg xmlns="http://www.w3.org/2000/svg" id="Layer_1" data-name="Layer 1" viewBox="0 0 511.7 603.16"><defs><style>.cls-1,.cls-2{fill:none;stroke:#000;stroke-width:18px;}.cls-1{stroke-miterlimit:10;}.cls-2{stroke-linejoin:round;}</style></defs><polygon class="cls-1" points="9 594.16 502.7 594.16 502.7 9 101.57 9 9 90.65 9 594.16"></polygon><polyline class="cls-1" points="39.86 104.26 117 104.26 117 36.22"></polyline><path class="cls-2" d="M1083.6,560a96.9,96.9,0,0,0-4.59-29.09l43.57-22.18-30.86-47.14-43.52,22.16A127.88,127.88,0,0,0,991,454.68V410.29H929.32v44.39a127.89,127.89,0,0,0-57.16,29.05l-43.53-22.16-30.85,47.14,43.57,22.18a94.28,94.28,0,0,0,0,58.18l-43.57,22.19,30.85,47.14,43.53-22.16a127.88,127.88,0,0,0,57.16,29v44.4H991v-44.4a127.86,127.86,0,0,0,57.17-29l43.52,22.16,30.86-47.14L1079,589.07A96.85,96.85,0,0,0,1083.6,560Z" transform="translate(-704.33 -237.99)"></path><ellipse class="cls-2" cx="255.85" cy="321.99" rx="46.28" ry="40.83"></ellipse></svg>