<svg xmlns="http://www.w3.org/2000/svg" id="Layer_1" data-name="Layer 1" viewBox="0 0 442.77 495.08"><defs><style>.cls-1{fill:none;stroke:#020202;stroke-miterlimit:10;stroke-width:22.22px;}</style></defs><path class="cls-1" d="M1170.45,376.81V556.08c0,103.86-210.27,218.38-210.27,218.38h0S749.9,659.94,749.9,556.08V377a213.47,213.47,0,0,0,31.31,2.27c70.95,0,144.21-13.83,178.89-66.89C994.77,365.4,1068,379.23,1139,379.23A196.45,196.45,0,0,0,1170.45,376.81Z" transform="translate(-738.79 -292.03)"></path><ellipse class="cls-1" cx="221.39" cy="251.37" rx="95.35" ry="90.05"></ellipse><line class="cls-1" x1="260.53" y1="214.4" x2="182.24" y2="288.34"></line><line class="cls-1" x1="260.53" y1="288.34" x2="182.24" y2="214.4"></line><line class="cls-1" x1="386.76" y1="129.09" x2="386.76" y2="148.46"></line><line class="cls-1" x1="56.01" y1="129.09" x2="56.01" y2="148.46"></line><line class="cls-1" x1="221.39" y1="83.62" x2="221.39" y2="102.99"></line><line class="cls-1" x1="221.39" y1="409.84" x2="221.39" y2="429.22"></line></svg>