<svg xmlns="http://www.w3.org/2000/svg" id="Layer_1" data-name="Layer 1" viewBox="0 0 605.12 525.6"><path d="M1255.18,446.41h-35.93V283.34c0-3.63-3.39-6.57-7.57-6.57h-406a8.35,8.35,0,0,0-1,.17c-.31,0-.57.09-.87.15a7.91,7.91,0,0,0-3.48,1.61l-97,84.23a6.29,6.29,0,0,0-1.84,3,5.75,5.75,0,0,0-.18.8,6.31,6.31,0,0,0-.2.86v78.83H665.18c-4.18,0-7.56,2.94-7.56,6.57V758c0,24.45,22.9,44.34,51.06,44.34h94c.37,0,.74,0,1.1,0s.74,0,1.1,0h406.81c28.16,0,51.06-19.89,51.06-44.34V453C1262.74,449.35,1259.36,446.41,1255.18,446.41ZM798.12,299.2V361H726.94l35.59-30.91Zm-81.88,74.95h89.44c4.18,0,7.56-2.94,7.56-6.57V289.91h390.88V752.52h-28.37V495.68c0-3.63-3.38-6.57-7.56-6.57H878.81l-36.23-40.18a8,8,0,0,0-6-2.52H716.24Zm175,390-36.8-32,14.63-12.7,36.8,32Zm-88,25.09c-25.26-.08-50.5-6.46-72.35-19.22l33-28.64a97.61,97.61,0,0,0,79.8,0l33,28.64a145.1,145.1,0,0,1-72.27,19.21Zm-101.6-37.8,36.8-32,14.62,12.7-36.8,32Zm45.44-108.95,18.73-16.27a10.4,10.4,0,0,0,2.74-3.81,80,80,0,0,1,70.41,0,10.4,10.4,0,0,0,2.74,3.81l18.73,16.27a12.6,12.6,0,0,0,4.38,2.38,54.44,54.44,0,0,1,0,61.23,12,12,0,0,0-4.34,2.31L841.7,724.63a10.41,10.41,0,0,0-2.73,3.8,80.06,80.06,0,0,1-70.41,0,10.39,10.39,0,0,0-2.74-3.82l-18.73-16.25a11.91,11.91,0,0,0-4.33-2.31,54.42,54.42,0,0,1,0-61.23A12.51,12.51,0,0,0,747.09,642.44Zm165.56,96.25-33-28.64a66.06,66.06,0,0,0,0-69.3l33-28.64C942.22,650.34,942.22,700.45,912.65,738.69ZM869.09,631.37l-14.62-12.7,36.81-31.95,14.61,12.69Zm-25.41-21.91a97.7,97.7,0,0,0-79.82,0l-33-28.63c44-25.68,101.74-25.66,145.75,0ZM716.27,586.71l36.79,32-14.61,12.7-36.8-32Zm-21.39,25.4,33,28.64a66.12,66.12,0,0,0,0,69.31l-33,28.63c-14.66-19-22-40.86-22.12-62.78V675C672.84,653,680.19,631.1,694.88,612.11Zm13.8,177.08c-19.81,0-35.93-14-35.93-31.2V731.47A124.56,124.56,0,0,0,685.64,750a10.35,10.35,0,0,0-.32,1.42,9.88,9.88,0,0,0,3.58,7.51l18.73,16.27a13.14,13.14,0,0,0,8.64,3.1,12.61,12.61,0,0,0,1.63-.28,151.23,151.23,0,0,0,21.3,11.2Zm181-11.2a12.61,12.61,0,0,0,1.63.28,13.12,13.12,0,0,0,8.64-3.1l18.74-16.27a9.91,9.91,0,0,0,3.57-7.51,9.06,9.06,0,0,0-.32-1.42c37.27-44.43,37.27-104.72,0-149.14a9.64,9.64,0,0,0-3.25-8.94L899.9,575.63a13.39,13.39,0,0,0-10.16-2.75c-51.2-32.46-120.72-32.47-172,0a13.39,13.39,0,0,0-10.16,2.75L688.88,591.9a9.65,9.65,0,0,0-3.24,8.93,124.56,124.56,0,0,0-12.89,18.5V459.55H833l36.23,40.19a8,8,0,0,0,6,2.51h285.5V758c0,.25.08.48.08.73s-.08.24-.08.37a5.78,5.78,0,0,0,.25,1.11,41.67,41.67,0,0,0,14.58,29H868.34A150.58,150.58,0,0,0,889.63,778Zm358-20c0,17.2-16.12,31.2-35.93,31.2-16.74,0-30.73-10-34.7-23.53h34.7c4.18,0,7.57-2.94,7.57-6.57,0-.11-.07-.2-.08-.31s.08-.21.08-.32V459.55h28.36Z" transform="translate(-657.62 -276.77)"></path></svg>