<svg xmlns="http://www.w3.org/2000/svg" id="Layer_1" data-name="Layer 1" viewBox="0 0 709.23 615.98"><path d="M1053.44,482H923.23c-4.9,0-8.87,3.44-8.87,7.7s4,7.7,8.87,7.7h130.21c4.9,0,8.86-3.45,8.86-7.7S1058.34,482,1053.44,482Z" transform="translate(-605.56 -231.58)"></path><path d="M1053.44,527.41H866.94c-4.9,0-8.87,3.44-8.87,7.7s4,7.7,8.87,7.7h186.5c4.9,0,8.86-3.45,8.86-7.7S1058.34,527.41,1053.44,527.41Z" transform="translate(-605.56 -231.58)"></path><path d="M1053.44,572.87H866.94c-4.9,0-8.87,3.44-8.87,7.7s4,7.7,8.87,7.7h186.5c4.9,0,8.86-3.44,8.86-7.7S1058.34,572.87,1053.44,572.87Z" transform="translate(-605.56 -231.58)"></path><path d="M1053.44,618.33H984.87c-4.9,0-8.86,3.45-8.86,7.7s4,7.7,8.86,7.7h68.57c4.9,0,8.86-3.44,8.86-7.7S1058.34,618.33,1053.44,618.33Z" transform="translate(-605.56 -231.58)"></path><path d="M1305.93,252.76h-261a10,10,0,0,0-1.33.23l-9-16.94a9.06,9.06,0,0,0-8-4.47h-122c-4.89,0-8.86,3.44-8.86,7.7V370.55h-17.4a10.87,10.87,0,0,0-1.14.2,9.53,9.53,0,0,0-1.09.19,9.28,9.28,0,0,0-4,1.87L806.14,430a11.41,11.41,0,0,0-2.6,5.44V588.2h-48.7a9.72,9.72,0,0,0-1.33.23l-9-16.94a9.06,9.06,0,0,0-8.06-4.47h-122c-4.9,0-8.87,3.44-8.87,7.7V813c0,19.07,17.87,34.57,39.83,34.57H984.87c22,0,39.83-15.5,39.83-34.57V708.6H1108c4.9,0,8.86-3.45,8.86-7.7V512.12H1275c22,0,39.83-15.52,39.83-34.59V260.46C1314.8,256.2,1310.83,252.76,1305.93,252.76ZM869.41,396.84v30.92h-35.6ZM803.54,603.59v15h-34l-8-15ZM623.29,813V582.42h107.5l25,47.09a9,9,0,0,0,8.05,4.48H945.05V813a31.21,31.21,0,0,0,6.72,19.17H645.39C633.2,832.16,623.29,823.56,623.29,813ZM1007,813c0,10.57-9.91,19.17-22.1,19.17s-22.09-8.6-22.09-19.17V708.6H1007Zm92.11-119.79H962.78V626.29c0-4.26-4-7.7-8.87-7.7H821.27V443.16h57c4.9,0,8.86-3.44,8.86-7.7V386h211.94ZM1108,370.55H913.41V247h107.48l25,47.09a9,9,0,0,0,8,4.48h181.2v179a31.33,31.33,0,0,0,6.72,19.19H1116.81V378.25C1116.81,374,1112.85,370.55,1108,370.55Zm189.12,107c0,10.58-9.91,19.19-22.1,19.19s-22.08-8.61-22.08-19.19V290.85c0-4.26-4-7.7-8.86-7.7H1059.64l-8-15h245.4Z" transform="translate(-605.56 -231.58)"></path><path d="M660.1,492.39c4.91,0,8.87-3.44,8.87-7.7V342.07h89.79l-35.44,23.6c-3.89,2.58-4.62,7.42-1.64,10.79a9.35,9.35,0,0,0,7,3,9.65,9.65,0,0,0,5.38-1.59l56.19-37.41c.16-.1.22-.25.37-.36a7.67,7.67,0,0,0,.9-.8c.11-.11.27-.15.38-.26s.15-.32.26-.47a7.22,7.22,0,0,0,.57-.83,6.92,6.92,0,0,0,.44-1,9.08,9.08,0,0,0,.31-1,7.66,7.66,0,0,0,.14-1c0-.17.11-.32.11-.5s-.1-.32-.11-.5a7.66,7.66,0,0,0-.14-1,8.25,8.25,0,0,0-.31-1,6.54,6.54,0,0,0-.44-1,7.22,7.22,0,0,0-.57-.83c-.11-.15-.14-.32-.26-.46s-.29-.19-.42-.32a8.88,8.88,0,0,0-.86-.75c-.15-.11-.21-.26-.37-.36l-56.19-37.4a9.76,9.76,0,0,0-12.41,1.43c-3,3.37-2.25,8.21,1.64,10.79l35.44,23.59H660.1c-4.9,0-8.86,3.44-8.86,7.7V484.69C651.24,489,655.2,492.39,660.1,492.39Z" transform="translate(-605.56 -231.58)"></path><path d="M1244,584.78c-4.9,0-8.87,3.44-8.87,7.7V735.1h-89.8l35.45-23.59c3.9-2.59,4.62-7.43,1.65-10.8a9.8,9.8,0,0,0-12.42-1.43l-56.19,37.41c-.15.1-.22.25-.36.36a8,8,0,0,0-.87.75c-.12.13-.3.19-.41.32s-.15.32-.27.47a7.52,7.52,0,0,0-.57.82,9.87,9.87,0,0,0-.74,1.93,5.3,5.3,0,0,0-.14,1,4.54,4.54,0,0,0-.12.5,4.05,4.05,0,0,0,.12.5,5.17,5.17,0,0,0,.14,1,6.66,6.66,0,0,0,.3,1,6.18,6.18,0,0,0,.45,1,8.38,8.38,0,0,0,.56.81c.12.15.14.33.27.47s.26.15.36.26a8.14,8.14,0,0,0,.93.82c.14.1.21.25.35.35l56.19,37.4a9.6,9.6,0,0,0,5.39,1.59,9.33,9.33,0,0,0,7-3c3-3.37,2.25-8.2-1.65-10.78l-35.44-23.6H1244c4.9,0,8.86-3.44,8.86-7.7V592.48C1252.89,588.22,1248.93,584.78,1244,584.78Z" transform="translate(-605.56 -231.58)"></path></svg>