<svg xmlns="http://www.w3.org/2000/svg" xmlns:xlink="http://www.w3.org/1999/xlink" id="_x2014_&#xCE;&#xD3;&#xC8;_x5F_1" x="0px" y="0px" viewBox="0 0 436.04 423.97" style="enable-background:new 0 0 436.04 423.97;" xml:space="preserve">
<style type="text/css">
	.st0{fill-rule:evenodd;clip-rule:evenodd;fill:#F2F2F2;}
	.st1{fill-rule:evenodd;clip-rule:evenodd;fill:#EFEFEF;}
	.st2{fill-rule:evenodd;clip-rule:evenodd;fill:#ECECEC;}
	.st3{fill-rule:evenodd;clip-rule:evenodd;fill:#E9E9E9;}
	.st4{fill-rule:evenodd;clip-rule:evenodd;fill:#E5E5E5;}
	.st5{fill-rule:evenodd;clip-rule:evenodd;fill:#E2E2E2;}
	.st6{fill-rule:evenodd;clip-rule:evenodd;fill:#DFDFDF;}
	.st7{fill-rule:evenodd;clip-rule:evenodd;fill:#DCDCDC;}
	.st8{fill-rule:evenodd;clip-rule:evenodd;fill:#D9D9D9;}
	.st9{fill-rule:evenodd;clip-rule:evenodd;fill:#D6D6D6;}
	.st10{fill-rule:evenodd;clip-rule:evenodd;fill:#D2D2D2;}
	.st11{fill-rule:evenodd;clip-rule:evenodd;fill:#CFCFCF;}
	.st12{fill-rule:evenodd;clip-rule:evenodd;fill:#CCCCCC;}
	.st13{fill-rule:evenodd;clip-rule:evenodd;fill:#054BA3;}
	.st14{fill-rule:evenodd;clip-rule:evenodd;fill:#06A6E0;}
	.st15{fill-rule:evenodd;clip-rule:evenodd;fill:#099A9D;}
	.st16{fill-rule:evenodd;clip-rule:evenodd;fill:#FFFFFF;}
</style>
<path class="st0" d="M218.95,319.4c75.84,0,137.32,4.47,137.32,9.98c0,5.51-61.48,9.97-137.32,9.97  c-75.84,0-137.32-4.47-137.32-9.97C81.62,323.86,143.1,319.4,218.95,319.4z"></path>
<path class="st1" d="M218.95,320.17c69.94,0,126.63,4.12,126.63,9.2c0,5.08-56.69,9.2-126.63,9.2c-69.94,0-126.63-4.12-126.63-9.2  C92.32,324.29,149.01,320.17,218.95,320.17z"></path>
<path class="st2" d="M218.95,320.95c64.03,0,115.94,3.77,115.94,8.42c0,4.65-51.9,8.42-115.94,8.42  c-64.03,0-115.94-3.77-115.94-8.42C103.01,324.72,154.92,320.95,218.95,320.95z"></path>
<path class="st3" d="M218.95,321.73c58.12,0,105.24,3.42,105.24,7.65c0,4.22-47.12,7.64-105.24,7.64  c-58.12,0-105.24-3.42-105.24-7.64C113.7,325.15,160.82,321.73,218.95,321.73z"></path>
<path class="st4" d="M218.95,322.5c52.22,0,94.55,3.08,94.55,6.87c0,3.79-42.33,6.87-94.55,6.87c-52.22,0-94.55-3.08-94.55-6.87  C124.4,325.58,166.73,322.5,218.95,322.5z"></path>
<path class="st5" d="M218.95,323.28c46.31,0,83.85,2.73,83.85,6.09c0,3.36-37.54,6.09-83.85,6.09c-46.31,0-83.85-2.73-83.85-6.09  C135.09,326.01,172.63,323.28,218.95,323.28z"></path>
<ellipse class="st6" cx="218.95" cy="329.37" rx="73.16" ry="5.31"></ellipse>
<path class="st7" d="M218.95,324.83c34.5,0,62.47,2.03,62.47,4.54c0,2.51-27.97,4.54-62.47,4.54c-34.5,0-62.47-2.03-62.47-4.54  C156.48,326.87,184.45,324.83,218.95,324.83z"></path>
<path class="st8" d="M218.95,325.61c28.59,0,51.77,1.68,51.77,3.76c0,2.08-23.18,3.76-51.77,3.76s-51.77-1.68-51.77-3.76  C167.17,327.29,190.35,325.61,218.95,325.61z"></path>
<path class="st9" d="M218.95,326.39c22.69,0,41.08,1.34,41.08,2.98c0,1.65-18.39,2.98-41.08,2.98c-22.69,0-41.08-1.34-41.08-2.98  C177.87,327.72,196.26,326.39,218.95,326.39z"></path>
<path class="st10" d="M218.95,327.16c16.78,0,30.39,0.99,30.39,2.21c0,1.22-13.6,2.21-30.39,2.21c-16.78,0-30.39-0.99-30.39-2.21  C188.56,328.15,202.16,327.16,218.95,327.16z"></path>
<path class="st11" d="M218.95,327.94c10.88,0,19.69,0.64,19.69,1.43c0,0.79-8.82,1.43-19.69,1.43c-10.88,0-19.69-0.64-19.69-1.43  C199.25,328.58,208.07,327.94,218.95,327.94z"></path>
<ellipse class="st12" cx="218.95" cy="329.37" rx="9" ry="0.65"></ellipse>
<rect x="187.39" y="52.8" transform="matrix(0.5402 -0.8415 0.8415 0.5402 16.2723 196.4703)" class="st13" width="1.07" height="61.09"></rect>
<rect x="156.7" y="240.25" transform="matrix(0.9283 -0.3719 0.3719 0.9283 -76.1759 86.6606)" class="st14" width="59.68" height="1.07"></rect>
<polygon class="st15" points="251.96,179.43 290.87,212.6 290.17,213.41 251.27,180.24 "></polygon>
<polygon class="st15" points="263.36,67.1 264.26,119.18 263.19,119.2 262.29,67.12 "></polygon>
<polygon class="st14" points="304.75,169.75 263.31,119.53 264.14,118.85 305.58,169.07 "></polygon>
<rect x="188.43" y="173.51" transform="matrix(0.6632 -0.7484 0.7484 0.6632 -91.4968 211.2337)" class="st13" width="1.07" height="67.56"></rect>
<polygon class="st14" points="208.48,155.41 214.78,229.64 213.71,229.73 207.42,155.49 "></polygon>
<polygon class="st14" points="214.78,229.69 214.59,291.59 213.53,291.59 213.71,229.69 "></polygon>
<polygon class="st14" points="266,249.76 214.15,229.94 214.34,229.44 266.19,249.25 "></polygon>
<rect x="258.32" y="179.09" transform="matrix(0.9791 -0.2035 0.2035 0.9791 -38.267 57.1653)" class="st15" width="1.07" height="71.15"></rect>
<rect x="185.92" y="237.73" transform="matrix(0.5838 -0.8119 0.8119 0.5838 -143.0219 264.4654)" class="st15" width="1.07" height="68.01"></rect>
<polygon class="st14" points="164.22,184.92 159.38,251.92 158.31,251.85 163.15,184.84 "></polygon>
<rect x="128.35" y="197.98" transform="matrix(0.7498 -0.6617 0.6617 0.7498 -94.0069 147.8945)" class="st15" width="40.39" height="0.53"></rect>
<polygon class="st13" points="163.56,185.22 119.11,168.85 119.35,168.19 163.81,184.55 "></polygon>
<polygon class="st13" points="162.09,116.91 112.77,119.16 112.75,118.62 162.07,116.38 "></polygon>
<rect x="162.35" y="116.64" transform="matrix(0.9997 -0.0236 0.0236 0.9997 -3.5055 3.8779)" class="st15" width="1.07" height="68.25"></rect>
<rect x="136.25" y="72.98" transform="matrix(0.4895 -0.872 0.872 0.4895 -19.5102 171.2716)" class="st13" width="0.53" height="58.63"></rect>
<rect x="182.85" y="127.38" transform="matrix(0.1017 -0.9948 0.9948 0.1017 62.3745 324.3696)" class="st15" width="55.89" height="0.53"></rect>
<polygon class="st15" points="161.54,116.66 159.83,66.8 160.9,66.76 162.61,116.63 "></polygon>
<rect x="184.48" y="106.01" transform="matrix(0.6458 -0.7635 0.7635 0.6458 -38.3425 189.4427)" class="st14" width="1.07" height="60.08"></rect>
<polygon class="st15" points="208.25,155.9 163.98,185.33 163.39,184.44 207.66,155 "></polygon>
<polygon class="st15" points="208.08,155.22 251.75,179.61 251.49,180.07 207.82,155.68 "></polygon>
<polygon class="st15" points="311.56,128.59 263.63,119.72 263.82,118.67 311.75,127.54 "></polygon>
<polygon class="st14" points="263.59,118.96 314.15,88.96 314.42,89.42 263.86,119.42 "></polygon>
<rect x="238.15" y="82.67" transform="matrix(0.3603 -0.9329 0.9329 0.3603 50.5283 292.716)" class="st13" width="1.07" height="53.7"></rect>
<rect x="202.58" y="136.79" transform="matrix(0.8384 -0.545 0.545 0.8384 -36.7359 150.7302)" class="st13" width="66.53" height="1.07"></rect>
<rect x="160.74" y="107.71" transform="matrix(0.9508 -0.3098 0.3098 0.9508 -24.2934 63.5278)" class="st13" width="54.23" height="1.07"></rect>
<rect x="194.93" y="80.71" transform="matrix(4.006570e-03 -1 1 4.006570e-03 131.7895 294.4474)" class="st14" width="37.56" height="0.71"></rect>
<polygon class="st15" points="213.34,99.4 262.53,66.66 263.12,67.56 213.93,100.29 "></polygon>
<rect x="287.7" y="50.07" transform="matrix(0.3795 -0.9252 0.9252 0.3795 107.1293 314.7849)" class="st14" width="1.07" height="54.92"></rect>
<polygon class="st15" points="314.17,87.98 311.85,127.77 310.78,127.71 313.1,87.92 "></polygon>
<polygon class="st15" points="311.84,128.3 305.69,169.49 304.63,169.34 310.78,128.15 "></polygon>
<polygon class="st13" points="305.67,169.58 291.03,213.17 290.01,212.83 304.66,169.24 "></polygon>
<polygon class="st13" points="266.32,249.78 214.28,291.87 213.84,291.31 265.87,249.23 "></polygon>
<polygon class="st14" points="158.39,252.17 132.95,211.89 133.85,211.32 159.3,251.6 "></polygon>
<polygon class="st15" points="132.89,211.77 118.72,168.69 119.74,168.35 133.91,211.44 "></polygon>
<rect x="115.64" y="118.68" transform="matrix(0.9916 -0.1292 0.1292 0.9916 -17.5988 16.1957)" class="st13" width="0.71" height="50.05"></rect>
<polygon class="st15" points="112.23,118.92 110.42,87.98 111.48,87.92 113.3,118.86 "></polygon>
<polygon class="st14" points="110.74,87.46 160.16,66.29 160.57,67.27 111.16,88.44 "></polygon>
<rect x="237.77" y="40.06" transform="matrix(0.098 -0.9952 0.9952 0.098 150.5744 295.5167)" class="st15" width="1.07" height="49.28"></rect>
<polygon class="st15" points="160.34,66.42 213.76,61.93 213.81,62.64 160.39,67.14 "></polygon>
<rect x="107.01" y="142.32" transform="matrix(0.6368 -0.771 0.771 0.6368 -58.8509 160.2265)" class="st14" width="67.28" height="0.54"></rect>
<rect x="256.35" y="230.99" transform="matrix(0.5561 -0.8311 0.8311 0.5561 -68.6589 333.9579)" class="st13" width="43.92" height="0.53"></rect>
<rect x="226.75" y="149.25" transform="matrix(0.1958 -0.9806 0.9806 0.1958 60.5966 372.922)" class="st15" width="61.84" height="0.54"></rect>
<polygon class="st14" points="305.21,169.68 251.67,180.1 251.57,179.58 305.11,169.15 "></polygon>
<rect x="201.78" y="204.5" transform="matrix(0.5999 -0.8001 0.8001 0.5999 -70.6259 268.3062)" class="st15" width="62.3" height="0.53"></rect>
<path class="st13" d="M282.7,213.01c0-0.01,0-0.01,0-0.02c0-4.3,3.51-7.81,7.81-7.81c0.01,0,0.01,0,0.02,0  c4.3,0,7.81,3.51,7.81,7.81c0,0.01,0,0.01,0,0.02c0,4.3-3.51,7.81-7.81,7.81c-0.01,0-0.01,0-0.02,0  C286.21,220.82,282.7,217.31,282.7,213.01z"></path>
<path class="st14" d="M207.24,62.29c0-0.01,0-0.01,0-0.02c0-3.6,2.94-6.54,6.54-6.54c0.01,0,0.01,0,0.02,0  c3.6,0,6.54,2.94,6.54,6.54c0,0.01,0,0.01,0,0.02c0,3.6-2.94,6.54-6.54,6.54c-0.01,0-0.01,0-0.02,0  C210.18,68.83,207.24,65.89,207.24,62.29z"></path>
<path class="st14" d="M186.73,155.48c0-0.02,0-0.04,0-0.06c0-11.67,9.52-21.19,21.19-21.19c0.02,0,0.04,0,0.06,0  c11.67,0,21.19,9.52,21.19,21.19c0,0.02,0,0.04,0,0.06c0,11.67-9.52,21.19-21.19,21.19c-0.02,0-0.04,0-0.06,0  C196.25,176.67,186.73,167.15,186.73,155.48z"></path>
<path class="st14" d="M141.82,251.91c0-0.01,0-0.03,0-0.04c0-9.37,7.64-17.01,17.01-17.01c0.01,0,0.03,0,0.04,0  c9.37,0,17.01,7.64,17.01,17.01c0,0.01,0,0.03,0,0.04c0,9.37-7.64,17.01-17.01,17.01c-0.01,0-0.03,0-0.04,0  C149.46,268.91,141.82,261.27,141.82,251.91z"></path>
<path class="st14" d="M305.2,87.96c0-0.01,0-0.01,0-0.02c0-4.64,3.79-8.43,8.43-8.43c0.01,0,0.02,0,0.02,0  c4.64,0,8.43,3.79,8.43,8.43c0,0.01,0,0.01,0,0.02c0,4.64-3.79,8.43-8.43,8.43c-0.01,0-0.01,0-0.02,0  C308.98,96.39,305.2,92.6,305.2,87.96z"></path>
<path class="st15" d="M199.1,99.87c0-0.01,0-0.03,0-0.04c0-7.99,6.52-14.51,14.51-14.51c0.01,0,0.03,0,0.04,0  c7.99,0,14.51,6.52,14.51,14.51c0,0.01,0,0.03,0,0.04c0,7.99-6.52,14.51-14.51,14.51c-0.01,0-0.03,0-0.04,0  C205.62,114.38,199.1,107.86,199.1,99.87z"></path>
<path class="st15" d="M249.15,67.13c0-0.01,0-0.02,0-0.04c0-7.52,6.14-13.66,13.66-13.66c0.01,0,0.02,0,0.04,0  c7.52,0,13.66,6.14,13.66,13.66c0,0.01,0,0.02,0,0.04c0,7.52-6.14,13.66-13.66,13.66c-0.01,0-0.02,0-0.04,0  C255.28,80.79,249.15,74.65,249.15,67.13z"></path>
<path class="st15" d="M207.92,291.6c0-0.01,0-0.01,0-0.02c0-3.38,2.76-6.14,6.14-6.14c0.01,0,0.01,0,0.02,0  c3.38,0,6.14,2.76,6.14,6.14c0,0.01,0,0.01,0,0.02c0,3.38-2.76,6.14-6.14,6.14c-0.01,0-0.01,0-0.02,0  C210.67,297.73,207.92,294.98,207.92,291.6z"></path>
<path class="st15" d="M149.43,66.79c0-0.01,0-0.02,0-0.03c0-6.02,4.91-10.92,10.92-10.92c0.01,0,0.02,0,0.03,0  c6.02,0,10.92,4.91,10.92,10.92c0,0.01,0,0.02,0,0.03c0,6.02-4.91,10.92-10.92,10.92c-0.01,0-0.02,0-0.03,0  C154.33,77.72,149.43,72.81,149.43,66.79z"></path>
<path class="st13" d="M147.54,184.9c0-0.01,0-0.03,0-0.04c0-8.88,7.24-16.12,16.12-16.12c0.01,0,0.03,0,0.04,0  c8.88,0,16.12,7.24,16.12,16.12c0,0.01,0,0.03,0,0.04c0,8.88-7.24,16.12-16.12,16.12c-0.01,0-0.03,0-0.04,0  C154.78,201.03,147.54,193.78,147.54,184.9z"></path>
<path class="st15" d="M99.01,118.91c0-0.01,0-0.02,0-0.04c0-7.56,6.17-13.73,13.73-13.73c0.01,0,0.02,0,0.04,0  c7.56,0,13.73,6.17,13.73,13.73c0,0.01,0,0.02,0,0.04c0,7.56-6.17,13.73-13.73,13.73c-0.01,0-0.02,0-0.04,0  C105.18,132.64,99.01,126.47,99.01,118.91z"></path>
<path class="st14" d="M103.94,168.54c0-0.01,0-0.03,0-0.04c0-8.41,6.86-15.27,15.27-15.27c0.01,0,0.03,0,0.04,0  c8.41,0,15.27,6.86,15.27,15.27c0,0.01,0,0.03,0,0.04c0,8.41-6.86,15.27-15.27,15.27c-0.01,0-0.03,0-0.04,0  C110.8,183.81,103.94,176.95,103.94,168.54z"></path>
<path class="st13" d="M138.3,117.18c0-0.02,0-0.04,0-0.06c0-13.08,10.67-23.75,23.75-23.75c0.02,0,0.04,0,0.06,0  c13.08,0,23.75,10.67,23.75,23.75c0,0.02,0,0.04,0,0.06c0,13.08-10.67,23.75-23.75,23.75c-0.02,0-0.04,0-0.06,0  C148.97,140.93,138.3,130.26,138.3,117.18z"></path>
<path class="st15" d="M299.06,127.75c0-0.01,0-0.02,0-0.03c0-6.74,5.5-12.24,12.24-12.24c0.01,0,0.02,0,0.03,0  c6.74,0,12.24,5.5,12.24,12.24c0,0.01,0,0.02,0,0.03c0,6.74-5.5,12.24-12.24,12.24c-0.01,0-0.02,0-0.03,0  C304.56,139.99,299.06,134.49,299.06,127.75z"></path>
<path class="st14" d="M103.69,87.96c0-0.01,0-0.01,0-0.02c0-3.99,3.26-7.25,7.25-7.25c0.01,0,0.01,0,0.02,0  c3.99,0,7.25,3.26,7.25,7.25c0,0.01,0,0.01,0,0.02c0,3.99-3.26,7.25-7.25,7.25c-0.01,0-0.01,0-0.02,0  C106.95,95.21,103.69,91.95,103.69,87.96z"></path>
<path class="st15" d="M123.93,211.78c0-0.01,0-0.02,0-0.02c0-5.12,4.17-9.29,9.29-9.29c0.01,0,0.02,0,0.02,0  c5.12,0,9.29,4.17,9.29,9.29c0,0.01,0,0.02,0,0.02c0,5.12-4.17,9.29-9.29,9.29c-0.01,0-0.02,0-0.02,0  C128.1,221.07,123.93,216.89,123.93,211.78z"></path>
<path class="st13" d="M250.91,249.49c0,0.01,0,0.03,0,0.04c0,8.35,6.81,15.16,15.16,15.16c0.01,0,0.03,0,0.04,0  c8.35,0,15.16-6.81,15.16-15.16c0-0.01,0-0.03,0-0.04c0-8.35-6.81-15.16-15.16-15.16c-0.01,0-0.03,0-0.04,0  C257.72,234.32,250.91,241.13,250.91,249.49z"></path>
<path class="st15" d="M236,179.54c0-0.01,0-0.03,0-0.04c0-8.82,7.2-16.02,16.02-16.02c0.01,0,0.03,0,0.04,0  c8.82,0,16.02,7.2,16.02,16.02c0,0.01,0,0.03,0,0.04c0,8.82-7.2,16.02-16.02,16.02c-0.01,0-0.03,0-0.04,0  C243.2,195.56,236,188.36,236,179.54z"></path>
<path class="st13" d="M237.29,119.23c0-0.02,0-0.05,0-0.07c0-14.54,11.86-26.4,26.4-26.4c0.02,0,0.05,0,0.07,0  c14.54,0,26.4,11.86,26.4,26.4c0,0.02,0,0.05,0,0.07c0,14.54-11.86,26.4-26.4,26.4c-0.02,0-0.05,0-0.07,0  C249.15,145.62,237.29,133.76,237.29,119.23z"></path>
<path class="st15" d="M185.28,229.73c0-0.03,0-0.05,0-0.08c0-16.32,13.31-29.62,29.62-29.62c0.03,0,0.05,0,0.08,0  c16.31,0,29.62,13.31,29.62,29.62c0,0.02,0,0.05,0,0.08c0,16.32-13.31,29.62-29.62,29.62c-0.03,0-0.05,0-0.08,0  C198.58,259.35,185.28,246.04,185.28,229.73z"></path>
<path class="st14" d="M289.46,169.43c0-0.01,0-0.03,0-0.04c0-8.64,7.04-15.68,15.68-15.68c0.01,0,0.03,0,0.04,0  c8.64,0,15.68,7.04,15.68,15.68c0,0.01,0,0.03,0,0.04c0,8.64-7.04,15.68-15.68,15.68c-0.01,0-0.03,0-0.04,0  C296.51,185.12,289.46,178.07,289.46,169.43z"></path>
<path class="st16" d="M274.88,127.71c0.45,0.08,0.75,0.51,0.68,0.96c-0.08,0.45-0.51,0.75-0.96,0.68c-0.68-0.12-1.37-0.26-2.05-0.43  c-0.65-0.16-1.29-0.35-1.9-0.55c-0.59-0.2-1.17-0.43-1.72-0.67c-0.53-0.24-1.04-0.5-1.52-0.79c-0.69-0.37-1.43-0.59-2.17-0.64  c-0.72-0.05-1.46,0.05-2.16,0.33v0l-0.08,0.03c-0.73,0.23-1.51,0.46-2.32,0.69c-0.76,0.21-1.59,0.44-2.48,0.67  c-0.9,0.23-1.76,0.45-2.6,0.66c-0.74,0.18-1.7,0.42-2.69,0.66c-0.44,0.11-0.89-0.17-1-0.61c-0.11-0.44,0.17-0.89,0.61-1  c0.82-0.2,1.66-0.4,2.68-0.66c0.92-0.23,1.79-0.45,2.58-0.65c0.8-0.21,1.62-0.43,2.45-0.66c0.77-0.22,1.51-0.44,2.23-0.66l0.04-0.01  c0.94-0.37,1.91-0.51,2.86-0.44c0.99,0.07,1.96,0.37,2.88,0.85l0.04,0.02c0.42,0.25,0.87,0.49,1.34,0.7  c0.5,0.23,1.03,0.43,1.57,0.62c0.57,0.19,1.17,0.37,1.76,0.52C273.58,127.46,274.23,127.6,274.88,127.71L274.88,127.71z   M272.95,130.47c-3.24-1.33-6.23-1.99-9.23-1.99c-2.99,0-5.98,0.66-9.23,1.99c-0.42,0.17-0.62,0.66-0.45,1.08  c0.17,0.42,0.66,0.62,1.08,0.45c3.03-1.24,5.82-1.86,8.6-1.86c2.78,0,5.56,0.62,8.6,1.86c0.42,0.17,0.91-0.03,1.08-0.45  C273.58,131.13,273.37,130.64,272.95,130.47L272.95,130.47z M269.39,132.59c0.45,0.08,0.75,0.51,0.66,0.96  c-0.08,0.45-0.51,0.75-0.96,0.66c-1.81-0.33-3.58-0.5-5.37-0.5c-1.78,0-3.56,0.17-5.37,0.5c-0.45,0.08-0.88-0.22-0.96-0.66  c-0.08-0.45,0.22-0.88,0.66-0.96c1.93-0.36,3.8-0.53,5.67-0.53S267.47,132.24,269.39,132.59L269.39,132.59z M276.29,113.17  c0.46,0.04,0.79,0.44,0.75,0.9c-0.04,0.46-0.44,0.79-0.9,0.75c-0.88-0.08-1.74-0.19-2.58-0.32c-0.84-0.13-1.63-0.28-2.36-0.46  c-0.73-0.17-1.43-0.37-2.1-0.6c-0.66-0.22-1.26-0.47-1.82-0.74c-1.08-0.53-2.32-0.79-3.56-0.79c-1.24,0-2.48,0.26-3.56,0.79  c-0.55,0.27-1.16,0.52-1.82,0.74c-0.67,0.23-1.37,0.43-2.1,0.6c-0.73,0.17-1.52,0.32-2.36,0.46c-0.83,0.13-1.7,0.24-2.58,0.32  c-0.45,0.04-0.86-0.29-0.9-0.75c-0.04-0.45,0.29-0.86,0.75-0.9c0.85-0.08,1.68-0.18,2.47-0.3c0.75-0.12,1.49-0.26,2.23-0.44  c0.7-0.17,1.35-0.35,1.95-0.56c0.58-0.2,1.12-0.42,1.62-0.66c1.31-0.64,2.8-0.96,4.29-0.96c1.48,0,2.97,0.32,4.28,0.96  c0.5,0.24,1.05,0.47,1.62,0.66c0.6,0.21,1.26,0.39,1.95,0.56c0.73,0.17,1.48,0.32,2.23,0.44  C274.61,112.99,275.44,113.09,276.29,113.17L276.29,113.17z M277,116.79c-0.95-0.07-1.88-0.17-2.77-0.32  c-0.87-0.14-1.71-0.32-2.51-0.54c-0.77-0.21-1.5-0.46-2.17-0.75c-0.64-0.27-1.24-0.58-1.77-0.92c-1.24-0.79-2.65-1.19-4.06-1.19  c-1.41,0-2.82,0.4-4.06,1.19c-0.53,0.34-1.13,0.65-1.77,0.92c-0.68,0.29-1.41,0.54-2.17,0.75c-0.8,0.22-1.64,0.4-2.51,0.54  c-0.89,0.15-1.82,0.25-2.77,0.32c-0.46,0.03-0.8,0.43-0.77,0.89c0.03,0.46,0.43,0.8,0.89,0.77c0.98-0.07,1.96-0.18,2.92-0.34  c0.92-0.15,1.82-0.35,2.68-0.58c0.84-0.23,1.64-0.51,2.38-0.82c0.73-0.31,1.4-0.66,2.02-1.05c0.96-0.62,2.06-0.92,3.16-0.92  c1.1,0,2.2,0.31,3.16,0.92c0.61,0.39,1.29,0.74,2.02,1.05c0.74,0.32,1.54,0.59,2.38,0.82c0.86,0.24,1.76,0.43,2.68,0.58  c0.96,0.16,1.93,0.27,2.92,0.34c0.46,0.03,0.85-0.31,0.89-0.77C277.8,117.22,277.46,116.82,277,116.79L277,116.79z M277.04,120.96  c0.46,0.02,0.81,0.41,0.79,0.87c-0.02,0.46-0.41,0.81-0.87,0.79c-1.04-0.05-2.07-0.16-3.06-0.34c-0.97-0.17-1.92-0.4-2.82-0.69  c-0.87-0.28-1.71-0.63-2.5-1.04c-0.76-0.4-1.46-0.85-2.09-1.37c-0.85-0.7-1.81-1.05-2.77-1.05c-0.96,0-1.92,0.35-2.77,1.05  c-0.63,0.52-1.33,0.97-2.09,1.37c-0.78,0.41-1.62,0.75-2.5,1.04c-0.9,0.3-1.85,0.53-2.82,0.69c-0.99,0.17-2.02,0.28-3.06,0.34  c-0.46,0.02-0.84-0.33-0.87-0.79c-0.02-0.46,0.33-0.84,0.79-0.87c0.96-0.05,1.91-0.15,2.85-0.32c0.9-0.16,1.77-0.37,2.59-0.64h0  c0.79-0.26,1.55-0.57,2.24-0.93c0.66-0.34,1.26-0.74,1.8-1.18c1.16-0.95,2.49-1.43,3.83-1.43c1.33,0,2.66,0.48,3.83,1.43  c0.54,0.44,1.15,0.84,1.8,1.18c0.69,0.36,1.44,0.67,2.24,0.93c0.82,0.27,1.69,0.48,2.59,0.64  C275.13,120.81,276.09,120.92,277.04,120.96L277.04,120.96z M274.65,109.34c-0.89-0.14-1.72-0.27-2.5-0.4  c-0.79-0.14-1.56-0.28-2.31-0.42c-0.75-0.15-1.45-0.3-2.09-0.44c-0.65-0.15-1.26-0.3-1.82-0.46l-0.04-0.01  c-1.03-0.33-2.12-0.45-3.2-0.4c-1.12,0.05-2.24,0.3-3.27,0.71l-0.01,0c-0.41,0.17-0.85,0.33-1.33,0.48  c-0.49,0.15-1.02,0.3-1.57,0.43h0c-0.6,0.14-1.2,0.27-1.79,0.37c-0.64,0.11-1.31,0.22-2,0.31c-0.45,0.06-0.77,0.47-0.71,0.93  c0.06,0.45,0.47,0.77,0.93,0.71c0.7-0.09,1.4-0.2,2.08-0.32c0.68-0.12,1.32-0.25,1.89-0.39c0.59-0.14,1.15-0.29,1.68-0.46  c0.52-0.16,1.01-0.34,1.47-0.53c0.85-0.34,1.79-0.54,2.72-0.58c0.89-0.04,1.78,0.06,2.61,0.32l0.07,0.02  c0.61,0.17,1.26,0.33,1.93,0.49c0.7,0.16,1.41,0.31,2.14,0.46c0.74,0.15,1.52,0.29,2.35,0.43c0.84,0.14,1.68,0.28,2.53,0.41  c0.45,0.07,0.88-0.24,0.94-0.7C275.41,109.83,275.1,109.41,274.65,109.34L274.65,109.34z M271.81,105.87  c0.43,0.15,0.67,0.61,0.52,1.05c-0.14,0.43-0.61,0.67-1.05,0.52c-3.24-1.09-5.41-1.63-7.56-1.63v0c-2.13,0-4.31,0.55-7.56,1.64  c-0.43,0.15-0.9-0.09-1.05-0.52c-0.15-0.43,0.09-0.9,0.52-1.05c3.41-1.15,5.73-1.72,8.08-1.72v0  C266.07,104.15,268.39,104.72,271.81,105.87L271.81,105.87z M276.04,124.66c-0.81-0.05-1.63-0.15-2.44-0.3  c-0.77-0.15-1.52-0.35-2.24-0.6c-0.69-0.24-1.34-0.53-1.95-0.87c-0.58-0.32-1.11-0.69-1.6-1.1l-0.02-0.02  c-1-0.79-2.11-1.23-3.25-1.26c-1.12-0.04-2.23,0.31-3.26,1.06c-0.59,0.39-1.25,0.74-1.95,1.06c-0.75,0.34-1.54,0.63-2.35,0.88  c-0.85,0.26-1.75,0.48-2.68,0.66c-0.97,0.19-1.96,0.33-2.93,0.43c-0.45,0.04-0.79,0.45-0.74,0.9c0.04,0.46,0.45,0.79,0.9,0.74  c1.05-0.1,2.08-0.25,3.08-0.45c0.96-0.19,1.92-0.42,2.84-0.71c0.89-0.27,1.74-0.59,2.55-0.96c0.77-0.35,1.5-0.75,2.18-1.19  l0.06-0.04c0.72-0.53,1.48-0.77,2.23-0.75c0.77,0.02,1.55,0.33,2.26,0.9c0.56,0.48,1.19,0.9,1.85,1.27c0.7,0.39,1.44,0.71,2.21,0.98  c0.8,0.28,1.63,0.5,2.47,0.66c0.87,0.17,1.76,0.28,2.65,0.33c0.46,0.03,0.85-0.32,0.88-0.78  C276.84,125.08,276.49,124.68,276.04,124.66z"></path>
<path class="st16" d="M109.72,117.09c0.01-0.5,0.04-0.95,0.18-1.39c0.18-0.57,0.52-1.06,1.18-1.5c0.51-0.34,1.1-0.51,1.69-0.51  c0.59,0,1.18,0.17,1.69,0.51c0.65,0.44,1,0.94,1.18,1.5c0.14,0.43,0.17,0.89,0.18,1.39c0.1,0.06,0.19,0.14,0.27,0.23  c0.17,0.2,0.28,0.47,0.28,0.74v2.92c0,0.31-0.13,0.59-0.33,0.8l0,0c-0.21,0.21-0.49,0.33-0.8,0.33h-4.92c-0.31,0-0.59-0.13-0.8-0.33  v0c-0.2-0.2-0.33-0.49-0.33-0.8v-2.92c0-0.27,0.11-0.54,0.29-0.75C109.53,117.23,109.62,117.15,109.72,117.09L109.72,117.09z   M112.39,127.21c-0.27,0-0.49-0.22-0.49-0.49c0-0.27,0.22-0.49,0.49-0.49h0.75c0.27,0,0.49,0.22,0.49,0.49  c0,0.27-0.22,0.49-0.49,0.49H112.39L112.39,127.21z M108.1,110.91h9.32v-0.21c0-0.18-0.06-0.34-0.17-0.46  c-0.09-0.1-0.22-0.17-0.36-0.17h-8.27c-0.14,0-0.26,0.06-0.35,0.17c-0.1,0.11-0.17,0.28-0.17,0.46V110.91L108.1,110.91z   M117.42,111.9h-9.32v12.88h9.32V111.9L117.42,111.9z M117.42,125.77h-9.32v1.31c0,0.18,0.06,0.34,0.17,0.46  c0.09,0.1,0.22,0.17,0.35,0.17h8.27c0.14,0,0.26-0.06,0.36-0.17c0.1-0.11,0.17-0.28,0.17-0.46V125.77L117.42,125.77z M108.63,109.1  c-0.42,0-0.81,0.19-1.08,0.49c-0.26,0.29-0.43,0.69-0.43,1.12v0.7v13.87v1.8c0,0.43,0.16,0.83,0.43,1.12  c0.28,0.3,0.66,0.49,1.08,0.49h8.27c0.42,0,0.81-0.19,1.08-0.49c0.26-0.29,0.43-0.69,0.43-1.12v-1.8V111.4v-0.7  c0-0.43-0.16-0.83-0.43-1.12c-0.28-0.3-0.66-0.49-1.08-0.49H108.63L108.63,109.1z M110.71,116.94h4.11  c-0.01-0.35-0.04-0.66-0.13-0.94c-0.12-0.36-0.34-0.69-0.78-0.98c-0.35-0.23-0.74-0.35-1.14-0.35c-0.4,0-0.8,0.12-1.14,0.35  c-0.44,0.3-0.67,0.62-0.78,0.98C110.75,116.27,110.72,116.58,110.71,116.94L110.71,116.94z M115.28,117.92h-5.04  c-0.01,0-0.03,0.02-0.04,0.03c-0.03,0.03-0.04,0.07-0.04,0.11v2.92c0,0.04,0.02,0.08,0.04,0.1l0,0c0.03,0.03,0.06,0.04,0.1,0.04  h4.92c0.04,0,0.08-0.02,0.1-0.04v0c0.03-0.03,0.04-0.06,0.04-0.1v-2.92c0-0.04-0.01-0.07-0.04-0.1  C115.31,117.94,115.29,117.93,115.28,117.92z"></path>
<path class="st16" d="M151.6,128.28h20.96c0.36,0,0.68-0.15,0.92-0.38l0,0c0.23-0.23,0.38-0.56,0.38-0.92v-14.12H150.3v14.12  c0,0.36,0.15,0.68,0.38,0.92C150.91,128.14,151.24,128.28,151.6,128.28L151.6,128.28z M165.12,109.4c-0.41,0-0.75-0.33-0.75-0.75  c0-0.41,0.33-0.75,0.75-0.75h0.9c0.41,0,0.75,0.33,0.75,0.75c0,0.41-0.33,0.75-0.75,0.75H165.12L165.12,109.4z M169.94,109.4  c-0.41,0-0.75-0.33-0.75-0.75c0-0.41,0.33-0.75,0.75-0.75h0.9c0.41,0,0.75,0.33,0.75,0.75c0,0.41-0.33,0.75-0.75,0.75H169.94  L169.94,109.4z M162.82,119.63v-3.69h3.55l0.03,0l0.02,0.01l0.02,0.02l0,0.03c-0.01,0.62-0.01,1.22,0,1.79  c0,0.64,0.01,1.25-0.01,1.83H162.82L162.82,119.63z M166.31,121.13c-0.27,1.92-1.07,3.33-3.48,4.14v-4.14H166.31L166.31,121.13z   M162.33,126.96c-0.08,0.03-0.16,0.04-0.25,0.04c-0.09,0-0.17-0.01-0.25-0.04c-5.63-1.38-5.61-4.54-5.6-9.16c0-0.57,0-1.16,0-1.77  c0-0.21,0.03-0.41,0.11-0.6c0.08-0.19,0.19-0.36,0.34-0.51c0.15-0.15,0.32-0.27,0.51-0.35c0.19-0.08,0.39-0.12,0.6-0.12h8.59  c0.21,0,0.41,0.04,0.6,0.12c0.19,0.08,0.36,0.2,0.51,0.35c0.15,0.15,0.26,0.32,0.34,0.51c0.08,0.19,0.11,0.39,0.11,0.6  c-0.01,0.61-0.01,1.2,0,1.77C167.94,122.42,167.95,125.58,162.33,126.96L162.33,126.96z M161.33,125.27  c-2.41-0.81-3.22-2.22-3.48-4.14h3.48V125.27L161.33,125.27z M157.73,119.63c-0.02-0.57-0.01-1.18-0.01-1.83c0-0.57,0-1.17,0-1.79  l0-0.03l0.02-0.02l0.02-0.01l0.03,0h3.55v3.69H157.73L157.73,119.63z M173.85,111.37v-4.06c0-0.36-0.15-0.68-0.38-0.92  c-0.24-0.24-0.56-0.38-0.92-0.38H151.6c-0.36,0-0.68,0.15-0.92,0.38c-0.24,0.24-0.38,0.56-0.38,0.92v4.06H173.85L173.85,111.37z   M175.35,112.1v0.02v0.02v14.85c0,0.77-0.31,1.47-0.82,1.97h0c-0.51,0.51-1.2,0.82-1.97,0.82H151.6c-0.77,0-1.47-0.31-1.97-0.82  c-0.51-0.51-0.82-1.2-0.82-1.97v-14.87v-4.81c0-0.77,0.31-1.47,0.82-1.97c0.51-0.51,1.2-0.82,1.97-0.82h20.96  c0.77,0,1.47,0.31,1.97,0.82c0.51,0.51,0.82,1.2,0.82,1.97V112.1z"></path>
<path class="st16" d="M263.78,247.97c0.01-0.36,0.03-0.69,0.14-1.01c0.14-0.43,0.4-0.81,0.9-1.15c0.39-0.26,0.84-0.39,1.29-0.39  c0.45,0,0.9,0.13,1.29,0.39c0.5,0.34,0.76,0.71,0.9,1.15c0.1,0.32,0.13,0.65,0.13,1.01c0.07,0.05,0.13,0.1,0.18,0.16  c0.14,0.16,0.22,0.38,0.22,0.6v2.15c0,0.25-0.1,0.48-0.27,0.64v0c-0.16,0.16-0.39,0.27-0.64,0.27h-3.63c-0.25,0-0.48-0.1-0.64-0.27  l0,0c-0.16-0.16-0.27-0.39-0.27-0.64v-2.15c0-0.22,0.09-0.44,0.23-0.6C263.65,248.07,263.71,248.01,263.78,247.97L263.78,247.97z   M270.79,254.65v0.1c0,0.24-0.2,0.44-0.44,0.44s-0.44-0.2-0.44-0.44v-0.1H259h-1.67h-0.99c-0.01,0-0.01,0-0.02,0.01  c0,0-0.01,0.01-0.01,0.02v0.83c0,0.01,0,0.01,0.01,0.02c0,0,0.01,0.01,0.02,0.01h19.53c0.01,0,0.01,0,0.02-0.01  c0,0,0.01-0.01,0.01-0.02v-0.83c0-0.01,0-0.01-0.01-0.02l0,0c0,0-0.01,0-0.01,0h-0.99h-1.06v0.1c0,0.24-0.2,0.44-0.44,0.44  c-0.24,0-0.44-0.2-0.44-0.44v-0.1h-0.63v0.1c0,0.24-0.2,0.44-0.44,0.44c-0.24,0-0.44-0.2-0.44-0.44v-0.1H270.79L270.79,254.65z   M275.31,253.77v-10.76c0-0.25-0.1-0.47-0.26-0.64c-0.16-0.16-0.39-0.26-0.64-0.26h-8.31h-8.31c-0.25,0-0.47,0.1-0.64,0.26  c-0.16,0.16-0.26,0.39-0.26,0.64v10.76h-0.55c-0.25,0-0.47,0.1-0.64,0.26c-0.16,0.16-0.27,0.39-0.27,0.64v0.83  c0,0.25,0.1,0.47,0.27,0.64c0.16,0.16,0.39,0.26,0.64,0.26h19.53c0.25,0,0.47-0.1,0.64-0.26c0.16-0.16,0.26-0.39,0.26-0.64v-0.83  c0-0.25-0.1-0.47-0.26-0.64l-0.03-0.03c-0.16-0.15-0.37-0.24-0.61-0.24H275.31L275.31,253.77z M266.53,242.99v0.1  c0,0.24-0.2,0.44-0.44,0.44c-0.24,0-0.44-0.2-0.44-0.44v-0.1h-7.87c-0.01,0-0.01,0-0.02,0.01c0,0-0.01,0.01-0.01,0.02v10.76H259  h11.35h1.51h1.33h0.18h1.06v-10.76c0-0.01,0-0.01-0.01-0.02c0,0-0.01-0.01-0.02-0.01H266.53L266.53,242.99z M264.66,247.82h2.88  c-0.01-0.22-0.03-0.42-0.09-0.6c-0.08-0.25-0.24-0.48-0.55-0.69c-0.24-0.16-0.52-0.24-0.8-0.24s-0.56,0.08-0.8,0.24  c-0.31,0.21-0.47,0.43-0.55,0.69C264.69,247.4,264.67,247.6,264.66,247.82L264.66,247.82z M267.93,248.7h-3.67  c-0.01,0.01-0.01,0.02-0.01,0.03v2.15c0,0.01,0,0.02,0.01,0.02v0c0.01,0.01,0.01,0.01,0.02,0.01h3.63c0.01,0,0.02,0,0.02-0.01l0,0  c0.01-0.01,0.01-0.01,0.01-0.02v-2.15C267.94,248.72,267.94,248.71,267.93,248.7L267.93,248.7z"></path>
<path class="st16" d="M305.11,173.38c1.23,0,2.35-0.5,3.16-1.31c0.81-0.81,1.31-1.93,1.31-3.16c0-1.24-0.5-2.35-1.31-3.16  c-0.8-0.8-1.92-1.3-3.14-1.31l-0.07,0h-0.01l-0.02,0c-1.21,0.02-2.3,0.52-3.09,1.31c-0.81,0.81-1.31,1.93-1.31,3.16  c0,1.24,0.5,2.35,1.31,3.16C302.76,172.88,303.88,173.38,305.11,173.38L305.11,173.38z M294.57,170.31  c-0.16,0.25-0.49,0.32-0.74,0.16c-0.25-0.16-0.32-0.49-0.16-0.74c1.25-1.95,2.96-3.57,4.97-4.68c1.9-1.06,4.07-1.66,6.38-1.69  l0.09,0l0.02,0l0.03,0c2.36,0,4.58,0.61,6.52,1.69c2.01,1.12,3.72,2.73,4.97,4.68c0.16,0.25,0.09,0.58-0.16,0.74  c-0.25,0.16-0.58,0.09-0.74-0.16c-0.05-0.08-0.11-0.16-0.16-0.24c-1.14,1.6-2.64,2.93-4.38,3.87c-1.8,0.97-3.87,1.52-6.06,1.52  c-2.19,0-4.25-0.55-6.06-1.52c-1.74-0.94-3.24-2.27-4.38-3.87C294.68,170.15,294.62,170.23,294.57,170.31L294.57,170.31z   M314.92,169.16c-1.06,1.6-2.51,2.92-4.21,3.84c-1.36,0.73-2.88,1.21-4.5,1.35c1.09-0.22,2.07-0.76,2.83-1.52  c1-1,1.62-2.39,1.62-3.92c0-1.48-0.58-2.83-1.53-3.82c0.71,0.24,1.39,0.54,2.03,0.9C312.61,166.79,313.88,167.87,314.92,169.16  L314.92,169.16z M301.04,165.14c-0.92,0.99-1.48,2.31-1.48,3.77c0,1.53,0.62,2.92,1.62,3.92c0.74,0.74,1.68,1.27,2.74,1.5  c-1.55-0.16-3.01-0.62-4.31-1.33c-1.7-0.92-3.15-2.24-4.21-3.84c1.04-1.29,2.32-2.37,3.76-3.17  C299.76,165.65,300.39,165.37,301.04,165.14L301.04,165.14z M305.11,170.89c-0.54,0-1.02-0.21-1.38-0.56l-0.02-0.02  c-0.36-0.36-0.58-0.85-0.58-1.4c0-0.55,0.22-1.04,0.58-1.4c0.36-0.36,0.85-0.58,1.4-0.58c0.54,0,1.02,0.21,1.38,0.56l0.02,0.02  c0.36,0.36,0.58,0.85,0.58,1.4c0,0.55-0.22,1.04-0.58,1.4v0C306.16,170.67,305.66,170.89,305.11,170.89L305.11,170.89z   M307.27,171.07c-0.55,0.55-1.32,0.9-2.16,0.9c-0.83,0-1.58-0.33-2.13-0.86l-0.03-0.03c-0.55-0.55-0.89-1.32-0.89-2.16  c0-0.84,0.34-1.6,0.89-2.16l0,0c0.55-0.55,1.32-0.89,2.16-0.89c0.83,0,1.58,0.33,2.13,0.87l0.03,0.03c0.55,0.55,0.89,1.32,0.89,2.16  C308.17,169.75,307.83,170.51,307.27,171.07L307.27,171.07z"></path>
<path class="st16" d="M121.68,170.13h5.56c0.46,0,0.88,0.19,1.19,0.49l0,0c0.3,0.3,0.49,0.72,0.49,1.18l0,0l0,0.04  c0,1.02,0,2.04,0,3.06c0,0.46-0.19,0.87-0.49,1.17c-0.3,0.3-0.71,0.49-1.16,0.49c-0.01,0-0.03,0-0.03,0h-2.55l-0.03,0l-0.03,0  l-2.97,0c-0.05,0.37-0.23,0.7-0.48,0.95l0,0c-0.3,0.3-0.72,0.49-1.18,0.49l0,0l-0.04,0c-0.51,0-1.01,0-1.52,0  c-0.46,0-0.87-0.19-1.17-0.49c-0.25-0.25-0.42-0.58-0.48-0.95h-2.97l-0.03,0l-0.03,0h-2.55c0,0-0.02,0-0.03,0  c-0.45-0.01-0.86-0.19-1.16-0.49c-0.3-0.3-0.49-0.71-0.49-1.17c0-1.02,0-2.04,0-3.06l0-0.04l0,0c0-0.46,0.19-0.88,0.49-1.18l0,0  c0.3-0.3,0.73-0.49,1.19-0.49h5.56v-1.23c-0.33-0.2-0.65-0.44-0.94-0.73c-0.37-0.37-0.66-0.78-0.89-1.23  c-0.23-0.46-0.39-0.95-0.46-1.45c0-0.03-0.01-0.05-0.01-0.08c0-0.29,0.23-0.52,0.52-0.53l2.04,0c0.03-0.15,0.07-0.3,0.13-0.43  c0.11-0.27,0.28-0.52,0.48-0.72c0.21-0.21,0.45-0.37,0.72-0.48c0.26-0.11,0.55-0.17,0.85-0.17v0c0.3,0,0.59,0.06,0.85,0.17  c0.27,0.11,0.52,0.28,0.72,0.48c0.21,0.21,0.37,0.45,0.48,0.72c0.06,0.14,0.1,0.28,0.13,0.43l2.04,0c0.03,0,0.05,0,0.08,0.01  c0.29,0.04,0.48,0.31,0.44,0.6c-0.08,0.5-0.23,0.99-0.46,1.45c-0.22,0.44-0.52,0.86-0.89,1.23c-0.29,0.29-0.6,0.53-0.94,0.73V170.13  L121.68,170.13z M118.13,164.89l2.19,0l-0.01-0.03c-0.06-0.15-0.15-0.27-0.25-0.38c-0.11-0.11-0.24-0.19-0.38-0.25  c-0.14-0.06-0.29-0.09-0.45-0.09l0,0c-0.16,0-0.31,0.03-0.45,0.09c-0.14,0.06-0.27,0.15-0.38,0.25c-0.11,0.11-0.19,0.24-0.25,0.38  L118.13,164.89L118.13,164.89z M124.18,159.92c0.2,0.2,0.2,0.54,0,0.74c-0.2,0.2-0.54,0.2-0.74,0c-0.27-0.27-0.58-0.52-0.91-0.74  c-0.32-0.22-0.67-0.4-1.02-0.55c-0.36-0.15-0.73-0.26-1.11-0.34c-0.37-0.07-0.76-0.11-1.16-0.11c-0.4,0-0.79,0.04-1.16,0.11  c-0.39,0.08-0.76,0.19-1.11,0.34c-0.36,0.15-0.7,0.33-1.03,0.55c-0.33,0.22-0.63,0.47-0.91,0.74c-0.2,0.2-0.54,0.2-0.74,0  c-0.2-0.2-0.2-0.54,0-0.74c0.33-0.33,0.68-0.62,1.06-0.87c0.38-0.25,0.78-0.47,1.21-0.65c0.42-0.17,0.86-0.31,1.31-0.4  c0.45-0.09,0.91-0.13,1.37-0.13c0.46,0,0.92,0.05,1.37,0.13c0.46,0.09,0.89,0.22,1.31,0.4l0,0c0.43,0.18,0.83,0.39,1.21,0.65  C123.49,159.3,123.85,159.59,124.18,159.92L124.18,159.92z M122.41,161.69c-0.21-0.21-0.44-0.4-0.68-0.56  c-0.24-0.16-0.5-0.3-0.78-0.42c-0.27-0.11-0.55-0.2-0.84-0.25c-0.29-0.06-0.58-0.09-0.88-0.09c-0.29,0-0.59,0.03-0.88,0.09  c-0.29,0.06-0.57,0.14-0.84,0.25l-0.03,0.01c-0.27,0.11-0.52,0.25-0.75,0.4c-0.24,0.16-0.47,0.35-0.68,0.56  c-0.2,0.2-0.2,0.54,0,0.74c0.2,0.2,0.54,0.2,0.74,0c0.16-0.16,0.33-0.3,0.53-0.43c0.18-0.12,0.37-0.23,0.57-0.31l0.02-0.01  c0.21-0.09,0.42-0.15,0.64-0.19c0.21-0.04,0.44-0.06,0.67-0.06c0.24,0,0.46,0.02,0.67,0.06c0.22,0.04,0.44,0.11,0.64,0.19  c0.21,0.09,0.41,0.19,0.6,0.32c0.19,0.13,0.37,0.27,0.53,0.43c0.2,0.2,0.54,0.2,0.74,0C122.61,162.23,122.61,161.89,122.41,161.69  L122.41,161.69z M114.32,171.18l0,4.34h2.46v-4.34H114.32L114.32,171.18z M113.27,175.52l0-4.34h-2.05c-0.17,0-0.33,0.07-0.44,0.19  l0,0c-0.11,0.11-0.19,0.27-0.19,0.44l0,0l0,0.04c0,1.02,0.01,2.04,0,3.06c0,0.17,0.07,0.32,0.18,0.43c0.11,0.11,0.27,0.18,0.43,0.18  h0.01v0H113.27L113.27,175.52z M121.68,175.52h2.46l0-4.34l-2.46,0V175.52L121.68,175.52z M117.52,168.11  c0.01,0.01,0.03,0.01,0.04,0.02c0.52,0.26,1.1,0.39,1.67,0.39c0.96,0,1.92-0.37,2.65-1.1c0.29-0.29,0.52-0.61,0.7-0.96  c0.09-0.17,0.16-0.35,0.22-0.53l-7.12,0c0.06,0.18,0.13,0.36,0.22,0.53c0.17,0.34,0.41,0.67,0.7,0.96  C116.87,167.71,117.18,167.93,117.52,168.11L117.52,168.11z M117.83,169.36l0,6.97h0v0.01c0,0.17,0.07,0.32,0.18,0.44  c0.11,0.11,0.26,0.18,0.43,0.18c0.51,0,1.02,0,1.52,0l0.04,0l0,0c0.17,0,0.33-0.07,0.44-0.19l0,0c0.11-0.12,0.19-0.27,0.19-0.44  l0-6.97c-0.46,0.14-0.93,0.21-1.4,0.21C118.76,169.57,118.29,169.5,117.83,169.36L117.83,169.36z M125.19,175.52h2.05v0h0.01  c0.17,0,0.32-0.07,0.44-0.18c0.11-0.11,0.18-0.26,0.18-0.43c0-1.02,0-2.04,0-3.06l0-0.04l0,0c0-0.17-0.07-0.33-0.19-0.45l0,0  c-0.11-0.12-0.27-0.19-0.44-0.19h-2.05L125.19,175.52z"></path>
<path class="st16" d="M244.98,170.94l2.22,0l0.01,0l0.01,0l11.89,0.01c0.43,0,0.81,0.17,1.09,0.45c0.28,0.28,0.45,0.66,0.45,1.09  l0,4.32l0,0.02l0,0.02l0,9.71c0,0.42-0.17,0.81-0.45,1.09c-0.28,0.28-0.66,0.45-1.09,0.45l-14.13-0.01c-0.42,0-0.81-0.17-1.09-0.45  c-0.28-0.28-0.45-0.66-0.45-1.09l0-4.32v-0.02l0-0.02l0-9.71h0h0c0-0.42,0.17-0.81,0.45-1.09  C244.17,171.11,244.56,170.94,244.98,170.94L244.98,170.94L244.98,170.94L244.98,170.94z M252.52,177.29v4.45h4.56  c0.01,0,0.03,0,0.04,0l2.58,0l0-4.45l-2.82,0c-0.02,0-0.04,0-0.05,0H252.52L252.52,177.29z M251.57,181.74v-4.45h-4.36  c-0.01,0-0.03,0-0.04,0l-2.78,0l0,4.45l2.82,0c0.02,0,0.04,0,0.05,0H251.57L251.57,181.74z M256.4,182.69h-4.36h-4.37l0,4.45l8.73,0  L256.4,182.69L256.4,182.69z M247.68,176.34h4.36h4.36l0-4.45l-8.73,0L247.68,176.34L247.68,176.34z M246.73,187.14l0-4.46l-2.35,0  l0,3.86c0,0.16,0.07,0.31,0.18,0.42c0.11,0.11,0.26,0.17,0.42,0.17L246.73,187.14L246.73,187.14z M244.39,176.34l2.35,0l0-4.45  l-1.75,0v0l0,0c-0.16,0-0.31,0.07-0.42,0.17c-0.11,0.11-0.17,0.26-0.17,0.42h0h0L244.39,176.34L244.39,176.34z M259.7,182.69  l-2.35,0l0,4.46l1.75,0c0.16,0,0.31-0.07,0.42-0.18c0.11-0.11,0.17-0.26,0.17-0.42L259.7,182.69L259.7,182.69z M257.36,171.89  l0,4.45l2.35,0l0-3.86c0-0.16-0.07-0.31-0.18-0.42c-0.11-0.11-0.26-0.17-0.42-0.17L257.36,171.89z"></path>
<path class="st16" d="M219.29,222.56h-19.1v6.81h1.99l0-1c0-0.49,0.4-0.89,0.89-0.89c0.49,0,0.89,0.4,0.89,0.89l0,1h1.85l0-1  c0-0.49,0.4-0.89,0.89-0.89c0.49,0,0.89,0.4,0.89,0.89l0,1h4.42c0-0.82,0-1.67-0.01-2.54c-0.01-0.35,0.05-0.68,0.18-0.99  c0.12-0.31,0.31-0.59,0.55-0.84c0.25-0.25,0.52-0.44,0.83-0.57l0.06-0.02c0.29-0.11,0.6-0.17,0.93-0.17h4.77V222.56L219.29,222.56z   M215.56,218.56c0.65,0,1.18-0.53,1.18-1.18c0-0.65-0.53-1.18-1.18-1.18c-0.65,0-1.18,0.53-1.18,1.18  C214.38,218.03,214.91,218.56,215.56,218.56L215.56,218.56z M224.21,234.86h8.63c0.06-1.37,0.05-2.83,0.05-4.39  c0-1.17-0.01-2.4,0.01-3.67c0-0.11-0.02-0.21-0.05-0.3c-0.04-0.09-0.09-0.17-0.17-0.25c-0.08-0.08-0.16-0.13-0.25-0.17  c-0.09-0.04-0.19-0.05-0.3-0.05h-7.91V234.86L224.21,234.86z M232.72,236.63h-8.51v10C230.5,244.82,232.25,241.41,232.72,236.63  L232.72,236.63z M223.62,248.63c-0.09,0.03-0.19,0.05-0.3,0.05c-0.1,0-0.2-0.02-0.3-0.05c-6.84-1.66-9.45-4.68-10.45-8.9h-13.28  c-0.49,0-0.89-0.4-0.89-0.89v-8.58v-8.58v-8.58c0-0.49,0.4-0.89,0.89-0.89h20.88c0.49,0,0.89,0.4,0.89,0.89v11.15h11.05  c0.35,0,0.68,0.07,0.98,0.19l0,0c0.3,0.13,0.58,0.32,0.83,0.57c0.25,0.25,0.43,0.53,0.55,0.84c0.12,0.31,0.18,0.64,0.18,0.99  c-0.02,1.26-0.01,2.48-0.01,3.64C234.69,239.65,234.72,245.92,223.62,248.63L223.62,248.63z M222.43,246.64v-10h-8.51  C214.4,241.41,216.15,244.82,222.43,246.64L222.43,246.64z M213.8,234.86c-0.06-1.37-0.05-2.83-0.05-4.39v0l0-0.12  c0-0.03,0-0.06,0-0.09c0-0.03,0-0.06,0-0.09c0-1.08,0.01-2.21-0.01-3.37c0-0.11,0.02-0.21,0.05-0.3c0.04-0.09,0.09-0.17,0.17-0.25  c0.08-0.08,0.16-0.13,0.25-0.17l0.03-0.01c0.08-0.03,0.17-0.04,0.27-0.04h5.66h2.25v8.84H213.8L213.8,234.86z M211.99,231.14h-11.79  v6.81h1.99l0-1c0-0.49,0.4-0.89,0.89-0.89c0.49,0,0.89,0.4,0.89,0.89l0,1h1.85l0-1c0-0.49,0.4-0.89,0.89-0.89  c0.49,0,0.89,0.4,0.89,0.89l0,1h4.69C211.99,235.91,211.98,233.64,211.99,231.14L211.99,231.14z M205.8,219.78l0,1h-1.85l0-1  c0-0.49-0.4-0.89-0.89-0.89c-0.49,0-0.89,0.4-0.89,0.89l0,1h-1.99v-6.81h19.1v6.81h-11.72l0-1c0-0.49-0.4-0.89-0.89-0.89  C206.2,218.9,205.8,219.29,205.8,219.78z"></path>
<path class="st16" d="M217.16,168.92h-18.42c-0.71,0-1.36-0.29-1.83-0.76c-0.47-0.47-0.76-1.12-0.76-1.83v-10.94  c0-0.71,0.29-1.36,0.76-1.83c0.36-0.36,0.82-0.61,1.33-0.71l0-1.75c0-1.31,0.26-2.57,0.74-3.71c0.49-1.19,1.22-2.26,2.12-3.15  c0.9-0.9,1.97-1.62,3.15-2.11c1.14-0.47,2.4-0.74,3.71-0.73c1.31,0,2.57,0.26,3.71,0.74c1.19,0.49,2.26,1.22,3.15,2.12  c0.9,0.9,1.62,1.97,2.11,3.15c0.47,1.14,0.74,2.4,0.73,3.71l0,1.74c0.51,0.1,0.97,0.35,1.33,0.71c0.47,0.47,0.76,1.12,0.76,1.83  v10.94c0,0.71-0.29,1.36-0.76,1.83C218.52,168.63,217.88,168.92,217.16,168.92L217.16,168.92z M201.28,152.8v-1.7  c0-1.84,0.75-3.51,1.96-4.72c1.21-1.21,2.88-1.96,4.72-1.96c1.84,0,3.51,0.75,4.72,1.96c1.21,1.21,1.96,2.88,1.96,4.72v1.7h1.61  l0-1.69c0-1.12-0.22-2.19-0.63-3.16c-0.42-1.01-1.04-1.93-1.8-2.69c-0.76-0.76-1.68-1.38-2.69-1.8c-0.98-0.41-2.04-0.63-3.16-0.63  c-1.12,0-2.19,0.22-3.16,0.63c-1.02,0.42-1.93,1.04-2.69,1.8c-0.76,0.76-1.38,1.68-1.8,2.69c-0.41,0.98-0.63,2.05-0.63,3.16l0,1.7  H201.28L201.28,152.8z M213.2,152.8v-1.7c0-1.45-0.59-2.76-1.54-3.71c-0.95-0.95-2.26-1.54-3.71-1.54c-1.45,0-2.76,0.59-3.71,1.54  c-0.95,0.95-1.54,2.26-1.54,3.71v1.7H213.2L213.2,152.8z M207.95,155.77c-0.82,0-1.57,0.33-2.11,0.87  c-0.54,0.54-0.87,1.28-0.87,2.11c0,0.49,0.12,0.96,0.33,1.36c0.16,0.31,0.37,0.59,0.62,0.82l0,3.01l0,0h0  c0,0.46,0.18,0.87,0.48,1.17c0.3,0.3,0.71,0.48,1.17,0.49l0,0v0l0.75,0c0.43,0,0.82-0.17,1.12-0.44l0.05-0.05  c0.3-0.3,0.48-0.71,0.48-1.17l0-3.01c0.25-0.23,0.46-0.51,0.62-0.82c0.21-0.41,0.33-0.87,0.33-1.36c0-0.82-0.33-1.57-0.87-2.11  C209.52,156.11,208.78,155.77,207.95,155.77L207.95,155.77z M209.05,157.66c-0.28-0.28-0.67-0.45-1.1-0.45  c-0.43,0-0.82,0.17-1.1,0.46c-0.28,0.28-0.45,0.67-0.45,1.1c0,0.25,0.06,0.5,0.17,0.71c0.11,0.22,0.28,0.41,0.48,0.55  c0.18,0.13,0.3,0.34,0.3,0.58l0,3.35h0l0,0c0,0.06,0.03,0.12,0.07,0.16c0.04,0.04,0.1,0.07,0.16,0.07v0l0,0l0.75,0  c0.05,0,0.1-0.02,0.14-0.05l0.02-0.02c0.04-0.04,0.07-0.1,0.07-0.16l0-3.32c-0.01-0.24,0.09-0.47,0.3-0.62  c0.2-0.14,0.37-0.33,0.48-0.55c0.11-0.21,0.17-0.46,0.17-0.71C209.5,158.33,209.33,157.94,209.05,157.66L209.05,157.66z   M198.74,167.49h18.42c0.32,0,0.61-0.13,0.82-0.34c0.21-0.21,0.34-0.5,0.34-0.82v-10.94c0-0.32-0.13-0.61-0.34-0.82  c-0.21-0.21-0.5-0.34-0.82-0.34h-3.24h-11.93h-3.25c-0.32,0-0.61,0.13-0.82,0.34c-0.21,0.21-0.34,0.5-0.34,0.82v10.94  c0,0.32,0.13,0.61,0.34,0.82C198.13,167.36,198.42,167.49,198.74,167.49z"></path>
<path class="st16" d="M157.5,179.97c0.1,0.04,0.19,0.1,0.26,0.17l0.03,0.03c0.06,0.07,0.11,0.15,0.15,0.25  c0.04,0.09,0.05,0.19,0.05,0.28v1.57c0,0.11-0.02,0.21-0.06,0.3c-0.04,0.1-0.1,0.19-0.17,0.26c-0.07,0.07-0.16,0.13-0.26,0.17h0  c-0.1,0.04-0.2,0.06-0.3,0.06h-1.57c-0.11,0-0.21-0.02-0.3-0.06c-0.1-0.04-0.18-0.1-0.26-0.17c-0.07-0.07-0.13-0.16-0.17-0.26  c-0.04-0.1-0.06-0.2-0.06-0.3v-1.57c0-0.09,0.02-0.18,0.05-0.27l0.01-0.04c0.03-0.08,0.08-0.15,0.14-0.22l0.04-0.04  c0.07-0.07,0.16-0.13,0.26-0.17c0.1-0.04,0.2-0.06,0.3-0.06h1.57C157.3,179.9,157.41,179.93,157.5,179.97L157.5,179.97z   M166.11,185.21v-3.94c0-0.25-0.1-0.47-0.27-0.64c-0.16-0.16-0.39-0.27-0.64-0.27c-0.25,0-0.47,0.1-0.64,0.26l0,0  c-0.16,0.16-0.27,0.39-0.27,0.64v8.21c0,0.28-0.22,0.5-0.5,0.5c-0.04,0-0.07,0-0.1-0.01l-3.19-0.44c-0.07-0.01-0.13-0.01-0.19,0.01  c-0.06,0.02-0.11,0.05-0.16,0.09v0c-0.05,0.05-0.09,0.1-0.12,0.15c-0.02,0.05-0.04,0.12-0.04,0.19v0.38c0,0.08,0.02,0.15,0.05,0.2  c0.05,0.08,0.13,0.15,0.22,0.21l3.67,2.37h7.58v-3.95c0-0.96-0.39-1.83-1.02-2.46c-0.63-0.63-1.5-1.02-2.46-1.02h-1.43  C166.34,185.71,166.11,185.48,166.11,185.21L166.11,185.21z M167.12,181.27v3.44h0.93c1.24,0,2.36,0.5,3.17,1.32  c0.81,0.81,1.32,1.94,1.32,3.17v4.45c0,0.28-0.22,0.5-0.5,0.5h-8.23v0c-0.09,0-0.19-0.03-0.27-0.08l-3.79-2.45  c-0.22-0.14-0.4-0.32-0.54-0.54c-0.13-0.21-0.2-0.46-0.2-0.72v-0.38c0-0.21,0.04-0.41,0.13-0.6l0,0c0.09-0.19,0.21-0.35,0.37-0.49  l0,0c0.16-0.14,0.34-0.24,0.54-0.3h0c0.19-0.06,0.4-0.07,0.61-0.04l2.66,0.37v-7.63c0-0.52,0.21-1,0.56-1.35h0  c0.35-0.35,0.82-0.56,1.35-0.56c0.52,0,1,0.21,1.35,0.56C166.9,180.27,167.12,180.74,167.12,181.27L167.12,181.27z M161.28,185.19  v1.15h-1.15v-1.15H161.28L161.28,185.19z M159.92,184.19h1.57c0.09,0,0.18,0.02,0.26,0.05l0.04,0.01c0.1,0.04,0.19,0.1,0.26,0.17  l0.03,0.03c0.07,0.07,0.12,0.16,0.15,0.25l0,0c0.03,0.09,0.05,0.19,0.05,0.28v1.57c0,0.1-0.02,0.21-0.06,0.3  c-0.04,0.1-0.1,0.19-0.17,0.26l0,0l0,0l-0.01,0.01c-0.07,0.07-0.16,0.13-0.26,0.16c-0.09,0.04-0.19,0.06-0.3,0.06h-1.57  c-0.09,0-0.18-0.02-0.27-0.05l-0.04-0.01c-0.1-0.04-0.19-0.1-0.26-0.17c-0.07-0.07-0.13-0.16-0.17-0.26  c-0.04-0.1-0.06-0.2-0.06-0.31v-1.57c0-0.11,0.02-0.21,0.06-0.3c0.04-0.1,0.1-0.19,0.17-0.26l0.03-0.03  c0.07-0.06,0.15-0.11,0.25-0.15C159.72,184.21,159.82,184.19,159.92,184.19L159.92,184.19z M161.28,180.91v1.15h-1.15v-1.15H161.28  L161.28,180.91z M159.92,179.9h1.57c0.11,0,0.21,0.02,0.31,0.06c0.08,0.03,0.15,0.08,0.21,0.13c0.02,0.01,0.03,0.03,0.05,0.04  c0.07,0.07,0.13,0.16,0.17,0.26c0.04,0.1,0.06,0.2,0.06,0.3v1.57c0,0.11-0.02,0.21-0.06,0.3c-0.04,0.1-0.1,0.19-0.17,0.26  c-0.07,0.07-0.16,0.13-0.26,0.17c-0.1,0.04-0.2,0.06-0.3,0.06h-1.57c-0.11,0-0.21-0.02-0.31-0.06c-0.1-0.04-0.19-0.1-0.26-0.17  c-0.07-0.07-0.13-0.16-0.17-0.26c-0.04-0.1-0.06-0.2-0.06-0.3v-1.57c0-0.11,0.02-0.21,0.06-0.3c0.04-0.1,0.1-0.19,0.17-0.26  l0.03-0.03c0.07-0.06,0.15-0.11,0.25-0.15C159.72,179.92,159.82,179.9,159.92,179.9L159.92,179.9z M155.84,177.78h1.15v-1.15h-1.15  V177.78L155.84,177.78z M157.2,178.78h-1.57c-0.11,0-0.21-0.02-0.31-0.06c-0.08-0.03-0.15-0.08-0.22-0.14l-0.04-0.03  c-0.06-0.06-0.11-0.14-0.15-0.22l-0.02-0.04c-0.04-0.1-0.06-0.2-0.06-0.31v-1.57c0-0.11,0.02-0.21,0.06-0.31  c0.04-0.09,0.09-0.17,0.16-0.24c0.01-0.01,0.03-0.03,0.04-0.04c0.07-0.06,0.15-0.11,0.25-0.15h0c0.09-0.04,0.19-0.05,0.28-0.05h1.57  c0.11,0,0.21,0.02,0.31,0.06c0.1,0.04,0.19,0.1,0.26,0.17c0.07,0.07,0.13,0.16,0.17,0.26c0.04,0.1,0.06,0.2,0.06,0.31v1.57  c0,0.11-0.02,0.21-0.06,0.3c-0.04,0.1-0.1,0.19-0.17,0.26c-0.06,0.06-0.14,0.11-0.22,0.15l-0.04,0.02  C157.41,178.76,157.3,178.78,157.2,178.78L157.2,178.78z M164.41,177.78h1.15v-1.15h-1.15V177.78L164.41,177.78z M165.77,178.78  h-1.57c-0.1,0-0.2-0.02-0.28-0.05c-0.09-0.04-0.18-0.09-0.25-0.15l-0.03-0.03c-0.07-0.07-0.13-0.16-0.17-0.26  c-0.04-0.1-0.06-0.2-0.06-0.31v-1.57c0-0.1,0.02-0.2,0.05-0.29l0,0c0.04-0.1,0.09-0.18,0.15-0.25l0.04-0.04  c0.07-0.07,0.16-0.13,0.25-0.16c0.1-0.04,0.2-0.06,0.31-0.06h1.57c0.09,0,0.18,0.02,0.27,0.05l0.04,0.01  c0.1,0.04,0.18,0.1,0.26,0.17l0,0c0.07,0.07,0.13,0.16,0.17,0.26c0.04,0.1,0.06,0.2,0.06,0.3v1.57c0,0.1-0.02,0.21-0.06,0.3  c-0.04,0.09-0.09,0.18-0.16,0.25l-0.01,0.01c-0.07,0.07-0.16,0.13-0.26,0.17C165.98,178.76,165.87,178.78,165.77,178.78  L165.77,178.78z M160.12,177.78h1.15v-1.15h-1.15V177.78L160.12,177.78z M161.48,178.78h-1.57c-0.09,0-0.18-0.02-0.27-0.05  l-0.04-0.01c-0.1-0.04-0.19-0.1-0.26-0.17c-0.07-0.07-0.13-0.16-0.17-0.26c-0.04-0.1-0.06-0.2-0.06-0.31v-1.57  c0-0.1,0.02-0.21,0.06-0.3c0.04-0.1,0.1-0.18,0.17-0.25l0.01-0.01c0.07-0.07,0.16-0.13,0.26-0.17c0.1-0.04,0.2-0.06,0.3-0.06h1.57  c0.11,0,0.21,0.02,0.31,0.06c0.1,0.04,0.18,0.1,0.26,0.17l0,0c0.07,0.07,0.13,0.16,0.17,0.26v0c0.04,0.1,0.06,0.2,0.06,0.3v1.57  c0,0.1-0.02,0.2-0.06,0.3c-0.03,0.08-0.07,0.15-0.13,0.21c-0.01,0.02-0.03,0.03-0.04,0.05l0,0l0,0c-0.06,0.06-0.14,0.11-0.22,0.15  l-0.04,0.02C161.69,178.76,161.59,178.78,161.48,178.78L161.48,178.78z M157.5,184.25c0.1,0.04,0.19,0.1,0.26,0.17  c0.07,0.07,0.13,0.16,0.17,0.26c0.04,0.1,0.06,0.2,0.06,0.3v1.57c0,0.11-0.02,0.21-0.06,0.3c-0.04,0.1-0.1,0.19-0.17,0.26  c-0.06,0.06-0.14,0.11-0.22,0.15l-0.04,0.02c-0.1,0.04-0.2,0.06-0.31,0.06h-1.57c-0.09,0-0.17-0.02-0.26-0.04l-0.05-0.02  c-0.08-0.03-0.15-0.08-0.22-0.14l-0.04-0.04c-0.07-0.07-0.13-0.16-0.17-0.26c-0.04-0.1-0.06-0.2-0.06-0.31v-1.57  c0-0.09,0.02-0.18,0.05-0.27l0.01-0.04c0.03-0.08,0.08-0.15,0.13-0.22l0.04-0.04c0.07-0.07,0.16-0.13,0.26-0.17  c0.1-0.04,0.2-0.06,0.3-0.06h1.57c0.09,0,0.18,0.02,0.26,0.05L157.5,184.25L157.5,184.25z M156.99,185.19h-1.15v1.15h1.15V185.19  L156.99,185.19z M156.99,180.91h-1.15v1.15h1.15V180.91z"></path>
<path class="st16" d="M159.45,253.49c0,0.34-0.27,0.61-0.61,0.61c-0.34,0-0.61-0.27-0.61-0.61v-7.14c0-0.34,0.27-0.61,0.61-0.61  c0.34,0,0.61,0.27,0.61,0.61V253.49L159.45,253.49z M158.76,240.77c-3.53,6.12-7.02,12.32-10.62,18.39  c-0.01,0.01-0.01,0.03-0.01,0.04c0,0.02,0,0.04,0.01,0.05c0.01,0.02,0.03,0.03,0.04,0.04l0,0c0.01,0.01,0.03,0.01,0.05,0.01h21.22  c0.02,0,0.04,0,0.05-0.01c0.01-0.01,0.03-0.02,0.04-0.04l0,0c0.01-0.02,0.01-0.03,0.01-0.05s-0.01-0.03-0.01-0.05l-10.61-18.38  c-0.01-0.02-0.03-0.03-0.04-0.04c-0.01-0.01-0.03-0.01-0.05-0.01c-0.02,0-0.04,0-0.05,0.01l-0.01,0.01  C158.77,240.75,158.76,240.76,158.76,240.77L158.76,240.77z M152.74,248.77l-5.64,9.77l-0.02,0.05c-0.1,0.2-0.16,0.4-0.16,0.61  c0,0.22,0.06,0.45,0.18,0.66v0c0.12,0.2,0.28,0.37,0.48,0.48c0.2,0.11,0.42,0.18,0.66,0.18h21.22c0.24,0,0.46-0.06,0.66-0.18h0  c0.19-0.11,0.36-0.28,0.48-0.48c0.12-0.21,0.18-0.43,0.18-0.66s-0.06-0.45-0.18-0.66c-0.92-1.48-10.61-18.29-10.61-18.38  c-0.12-0.2-0.28-0.37-0.48-0.48c-0.2-0.11-0.42-0.18-0.66-0.18c-0.24,0-0.46,0.06-0.66,0.18l-0.04,0.03  c-0.18,0.11-0.33,0.27-0.43,0.45L152.74,248.77L152.74,248.77z M158.85,255.56c0.26,0,0.49,0.1,0.66,0.27  c0.17,0.17,0.27,0.4,0.27,0.66c0,0.26-0.1,0.49-0.27,0.66c-0.17,0.17-0.4,0.27-0.66,0.27c-0.26,0-0.49-0.1-0.66-0.27  c-0.17-0.17-0.27-0.4-0.27-0.66c0-0.26,0.1-0.49,0.27-0.66C158.36,255.67,158.59,255.56,158.85,255.56z"></path>
<path class="st16" d="M259.34,63.21h6.97c0.23,0,0.42,0.19,0.42,0.42v6.97c0,0.23-0.19,0.42-0.42,0.42h-6.97  c-0.23,0-0.42-0.19-0.42-0.42v-6.97C258.92,63.39,259.11,63.21,259.34,63.21L259.34,63.21z M255.88,71.61v0.92  c0,0.42,0.17,0.8,0.45,1.08l0,0c0.28,0.28,0.66,0.45,1.08,0.45h0.92v1.64c0,0.23,0.19,0.42,0.42,0.42c0.23,0,0.42-0.19,0.42-0.42  v-1.64h3.27v1.64c0,0.23,0.19,0.42,0.42,0.42c0.23,0,0.42-0.19,0.42-0.42v-1.64h3.21v1.64c0,0.23,0.19,0.42,0.42,0.42  c0.23,0,0.42-0.19,0.42-0.42v-1.64h0.92c0.41,0,0.78-0.16,1.05-0.42l0.03-0.02c0.28-0.28,0.45-0.66,0.45-1.08v-0.92h1.64  c0.23,0,0.42-0.19,0.42-0.42c0-0.23-0.19-0.42-0.42-0.42h-1.64v-3.21h1.64c0.23,0,0.42-0.19,0.42-0.42c0-0.23-0.19-0.42-0.42-0.42  h-1.64v-3.27h1.65c0.23,0,0.42-0.19,0.42-0.42c0-0.23-0.19-0.42-0.42-0.42h-1.65V61.7c0-0.42-0.17-0.8-0.45-1.08  c-0.28-0.28-0.66-0.45-1.08-0.45h-0.92v-1.64c0-0.23-0.19-0.42-0.42-0.42c-0.23,0-0.42,0.19-0.42,0.42v1.64h-3.21v-1.64  c0-0.23-0.19-0.42-0.42-0.42c-0.23,0-0.42,0.19-0.42,0.42v1.64h-3.27v-1.65c0-0.23-0.19-0.42-0.42-0.42c-0.23,0-0.42,0.19-0.42,0.42  v1.65h-0.92c-0.42,0-0.8,0.17-1.08,0.45v0c-0.28,0.28-0.45,0.66-0.45,1.08v0.92h-1.65c-0.23,0-0.42,0.19-0.42,0.42  c0,0.23,0.19,0.42,0.42,0.42h1.65v3.27h-1.65c-0.23,0-0.42,0.19-0.42,0.42c0,0.23,0.19,0.42,0.42,0.42h1.65v3.21h-1.65  c-0.23,0-0.42,0.19-0.42,0.42c0,0.23,0.19,0.42,0.42,0.42H255.88L255.88,71.61z M258.7,73.22c0.02,0,0.03,0,0.05,0  c0.02,0,0.03,0,0.05,0h4.06h4.05h1.34c0.18,0,0.35-0.07,0.47-0.19l0.02-0.02c0.12-0.12,0.2-0.3,0.2-0.49V61.7  c0-0.19-0.08-0.36-0.2-0.49c-0.12-0.12-0.3-0.2-0.49-0.2h-1.34h-4.05h-4.11h-1.34c-0.19,0-0.36,0.08-0.49,0.2l0,0  c-0.12,0.12-0.2,0.3-0.2,0.49v10.83c0,0.19,0.08,0.36,0.2,0.49c0.12,0.12,0.3,0.2,0.49,0.2H258.7L258.7,73.22z M265.89,64.04h-6.13  v6.14h6.13V64.04z"></path>
<path class="st16" d="M315.94,131.64c0.45-0.54,0.82-1.15,1.06-1.83l0.01-0.02c0.23-0.64,0.36-1.34,0.36-2.06  c0-0.73-0.13-1.43-0.36-2.08c-0.25-0.67-0.61-1.29-1.06-1.83c-0.17-0.2-0.24-0.44-0.23-0.68l0-0.01c0.01-0.24,0.11-0.47,0.29-0.65  l0.02-0.02c0.02-0.02,0.23-0.23,0.23-0.23c0.1-0.1,0.21-0.17,0.34-0.22c0.12-0.05,0.26-0.07,0.4-0.06c0.14,0.01,0.28,0.04,0.39,0.1  c0.12,0.06,0.23,0.14,0.32,0.25c0.63,0.75,1.14,1.6,1.48,2.54c0.33,0.9,0.51,1.87,0.51,2.89c0,1.02-0.18,1.99-0.51,2.89  c-0.34,0.93-0.85,1.79-1.49,2.54c-0.09,0.11-0.2,0.19-0.32,0.25c-0.12,0.06-0.25,0.09-0.39,0.1c-0.14,0.01-0.27-0.01-0.4-0.06  c-0.12-0.05-0.24-0.12-0.34-0.22l-0.25-0.25c-0.18-0.18-0.28-0.42-0.3-0.66C315.7,132.08,315.78,131.84,315.94,131.64L315.94,131.64  z M317.73,130.08c-0.28,0.76-0.69,1.45-1.2,2.06c-0.04,0.04-0.05,0.1-0.05,0.15v0c0,0.05,0.02,0.1,0.07,0.14l0.25,0.25  c0.02,0.02,0.05,0.04,0.07,0.05c0.03,0.01,0.06,0.01,0.09,0.01c0.03,0,0.06-0.01,0.09-0.02c0.02-0.01,0.05-0.03,0.07-0.06  c0.57-0.67,1.03-1.45,1.35-2.31c0.3-0.82,0.47-1.71,0.47-2.63c0-0.92-0.16-1.81-0.46-2.63c-0.31-0.85-0.77-1.63-1.35-2.31  c-0.02-0.02-0.04-0.04-0.07-0.06c-0.03-0.01-0.06-0.02-0.09-0.02c-0.03,0-0.06,0-0.09,0.01c-0.02,0.01-0.05,0.03-0.07,0.05l0,0  l-0.23,0.23l-0.02,0.02c-0.04,0.04-0.06,0.09-0.06,0.14v0c0,0.05,0.01,0.11,0.05,0.15c0.51,0.61,0.92,1.3,1.19,2.06  c0.27,0.73,0.41,1.52,0.41,2.34c0,0.82-0.14,1.6-0.41,2.32L317.73,130.08L317.73,130.08z M307.72,125.04  c-0.29,0.38-0.52,0.81-0.67,1.28c-0.15,0.45-0.23,0.93-0.23,1.42c0,0.5,0.08,0.99,0.24,1.44c0.16,0.47,0.39,0.9,0.69,1.29  c0.02,0.03,0.04,0.05,0.07,0.06c0.02,0.01,0.05,0.02,0.09,0.02c0.03,0,0.07,0,0.09-0.01c0.03-0.01,0.05-0.03,0.08-0.05l0.25-0.25  c0.04-0.04,0.06-0.09,0.07-0.14c0-0.05-0.01-0.1-0.04-0.15c-0.24-0.31-0.42-0.67-0.55-1.05c-0.12-0.37-0.19-0.76-0.19-1.17  c0-0.4,0.06-0.79,0.18-1.15c0.12-0.38,0.3-0.73,0.53-1.04c0.03-0.04,0.05-0.1,0.04-0.15c0-0.05-0.03-0.1-0.06-0.13l-0.02-0.02  l-0.23-0.23l0,0c-0.03-0.03-0.05-0.04-0.08-0.05c-0.03-0.01-0.06-0.01-0.09-0.01c-0.04,0-0.07,0.01-0.09,0.02  C307.76,124.99,307.74,125.01,307.72,125.04L307.72,125.04z M306.32,126.07c0.18-0.54,0.45-1.05,0.78-1.5  c0.09-0.12,0.19-0.21,0.32-0.28c0.12-0.07,0.26-0.11,0.4-0.12c0.14-0.01,0.28,0.01,0.42,0.06c0.13,0.05,0.25,0.13,0.35,0.23  c0,0,0.21,0.21,0.23,0.23l0.02,0.02c0.17,0.17,0.27,0.4,0.29,0.62c0.02,0.23-0.04,0.46-0.19,0.66c-0.18,0.25-0.32,0.52-0.42,0.82  c-0.09,0.29-0.14,0.6-0.14,0.91c0,0.32,0.05,0.64,0.15,0.93c0.1,0.3,0.25,0.58,0.44,0.83c0.15,0.2,0.21,0.44,0.2,0.67  c-0.02,0.23-0.12,0.46-0.29,0.63l-0.25,0.25c-0.1,0.1-0.22,0.18-0.35,0.22c-0.13,0.05-0.27,0.07-0.41,0.06  c-0.14-0.01-0.28-0.05-0.4-0.11c-0.12-0.07-0.23-0.16-0.32-0.27c-0.35-0.45-0.62-0.96-0.81-1.51c-0.18-0.53-0.28-1.1-0.28-1.69  C306.05,127.15,306.14,126.59,306.32,126.07L306.32,126.07z M304.93,133.17c-0.64-0.75-1.14-1.6-1.49-2.54  c-0.33-0.9-0.51-1.87-0.51-2.89c0-1.02,0.18-1.99,0.51-2.89c0.34-0.93,0.85-1.79,1.48-2.54c0.09-0.11,0.2-0.19,0.32-0.25  c0.12-0.06,0.25-0.09,0.39-0.1c0.14-0.01,0.28,0.02,0.4,0.06c0.13,0.05,0.24,0.12,0.34,0.22l0.02,0.02l0.23,0.23l0,0  c0.18,0.18,0.28,0.42,0.29,0.66c0.01,0.24-0.07,0.48-0.23,0.68c-0.45,0.54-0.81,1.15-1.06,1.83c-0.24,0.65-0.37,1.35-0.36,2.08  c0,0.73,0.13,1.43,0.37,2.08c0.25,0.67,0.61,1.29,1.06,1.83c0.17,0.2,0.24,0.44,0.23,0.68l0,0.01c-0.01,0.24-0.11,0.47-0.29,0.65  l-0.25,0.25c-0.1,0.1-0.21,0.17-0.34,0.22c-0.12,0.05-0.26,0.07-0.4,0.06c-0.14-0.01-0.27-0.04-0.39-0.1  C305.12,133.36,305.02,133.27,304.93,133.17L304.93,133.17z M304.16,130.36c0.31,0.85,0.77,1.63,1.35,2.31  c0.02,0.02,0.04,0.04,0.07,0.06c0.02,0.01,0.05,0.02,0.09,0.02c0.03,0,0.06,0,0.09-0.01c0.03-0.01,0.05-0.03,0.07-0.05l0.25-0.25  c0.04-0.04,0.06-0.09,0.07-0.14v-0.01c0-0.05-0.01-0.11-0.05-0.15c-0.51-0.61-0.92-1.3-1.2-2.06v0c-0.27-0.73-0.41-1.52-0.41-2.34  c0-0.82,0.14-1.61,0.41-2.34c0.28-0.76,0.68-1.45,1.19-2.06c0.04-0.04,0.05-0.1,0.05-0.15v0c0-0.05-0.02-0.1-0.06-0.14  c0,0-0.21-0.21-0.23-0.23l-0.02-0.02c-0.02-0.02-0.05-0.04-0.07-0.05c-0.03-0.01-0.06-0.01-0.09-0.01c-0.03,0-0.06,0.01-0.09,0.02  c-0.03,0.01-0.05,0.03-0.07,0.06c-0.57,0.68-1.03,1.46-1.35,2.31c-0.3,0.82-0.46,1.7-0.46,2.63  C303.7,128.66,303.86,129.54,304.16,130.36L304.16,130.36z M314.02,131.04c0.1,0.1,0.22,0.18,0.35,0.22  c0.13,0.05,0.27,0.07,0.41,0.06c0.14-0.01,0.28-0.05,0.4-0.11c0.12-0.07,0.23-0.16,0.32-0.27c0.35-0.45,0.62-0.96,0.81-1.51  c0.18-0.53,0.28-1.1,0.28-1.69c0-0.58-0.09-1.14-0.27-1.67c-0.18-0.54-0.45-1.05-0.78-1.5c-0.09-0.12-0.19-0.21-0.32-0.28  c-0.12-0.07-0.26-0.11-0.4-0.12c-0.14-0.01-0.28,0.01-0.42,0.06c-0.13,0.05-0.25,0.13-0.35,0.23c0,0-0.21,0.21-0.23,0.23l-0.02,0.02  c-0.17,0.17-0.27,0.4-0.29,0.62c-0.02,0.23,0.04,0.46,0.19,0.66c0.18,0.25,0.32,0.52,0.42,0.82c0.09,0.29,0.14,0.6,0.14,0.91  c0,0.32-0.05,0.64-0.15,0.93c-0.1,0.3-0.25,0.58-0.44,0.83c-0.15,0.2-0.21,0.44-0.2,0.67c0.02,0.23,0.12,0.46,0.29,0.63  L314.02,131.04L314.02,131.04z M314.31,130.24l0.25,0.25c0.02,0.02,0.05,0.04,0.08,0.05c0.03,0.01,0.06,0.01,0.09,0.01  c0.03,0,0.06-0.01,0.09-0.02c0.02-0.01,0.05-0.03,0.07-0.06c0.3-0.39,0.53-0.82,0.69-1.29c0.15-0.45,0.24-0.94,0.24-1.44  c0-0.5-0.08-0.98-0.23-1.42c-0.15-0.46-0.38-0.89-0.67-1.28c-0.02-0.03-0.04-0.05-0.07-0.06c-0.02-0.01-0.05-0.02-0.09-0.02  c-0.04,0-0.07,0-0.09,0.01c-0.02,0.01-0.05,0.03-0.08,0.05l0,0l-0.23,0.23l-0.02,0.02c-0.04,0.04-0.06,0.09-0.06,0.13  c0,0.05,0.01,0.1,0.04,0.15c0.23,0.31,0.41,0.66,0.53,1.04c0.12,0.36,0.18,0.75,0.18,1.15c0,0.41-0.07,0.8-0.19,1.17  c-0.13,0.38-0.32,0.74-0.55,1.05c-0.03,0.04-0.05,0.1-0.04,0.15C314.25,130.15,314.27,130.2,314.31,130.24L314.31,130.24z   M311.31,129.1c0.38,0,0.72-0.15,0.97-0.4c0.25-0.25,0.4-0.59,0.4-0.97c0-0.38-0.15-0.72-0.4-0.97c-0.25-0.25-0.59-0.4-0.97-0.4v0  l0,0c-0.38,0-0.72,0.15-0.97,0.4c-0.25,0.25-0.4,0.59-0.4,0.97h0l0,0c0,0.38,0.15,0.72,0.4,0.97  C310.6,128.95,310.94,129.1,311.31,129.1L311.31,129.1L311.31,129.1L311.31,129.1z M312.82,129.25c-0.39,0.39-0.92,0.62-1.51,0.62v0  v0c-0.59,0-1.13-0.24-1.51-0.63c-0.39-0.39-0.62-0.92-0.62-1.51h0l0,0c0-0.59,0.24-1.13,0.63-1.51c0.39-0.39,0.92-0.62,1.51-0.62v0  l0,0c0.59,0,1.13,0.24,1.51,0.63c0.39,0.39,0.62,0.92,0.62,1.51C313.45,128.32,313.21,128.86,312.82,129.25z"></path>
<path class="st16" d="M211.59,90.83c-1.73,0.39-3.28,1.27-4.49,2.48c-0.77,0.77-1.4,1.67-1.86,2.67h3.86c0.21-1,0.5-1.9,0.85-2.69  C210.41,92.29,210.96,91.46,211.59,90.83L211.59,90.83z M215.68,90.83c0.63,0.63,1.18,1.45,1.64,2.45c0.35,0.79,0.64,1.69,0.85,2.69  h3.86c-0.46-1-1.09-1.9-1.86-2.67C218.96,92.1,217.41,91.22,215.68,90.83L215.68,90.83z M218.35,97.01  c0.13,0.88,0.19,1.83,0.19,2.83c0,1.01-0.07,1.96-0.19,2.83h4.08c0.29-0.89,0.44-1.85,0.44-2.83s-0.16-1.94-0.44-2.83H218.35  L218.35,97.01z M218.17,103.71c-0.21,1-0.5,1.9-0.85,2.69c-0.45,1-1.01,1.82-1.64,2.45c1.73-0.39,3.28-1.27,4.49-2.48  c0.77-0.77,1.4-1.67,1.86-2.67H218.17L218.17,103.71z M213.63,109.05c-1.07-0.46-2.03-1.5-2.74-3.07c-0.3-0.67-0.55-1.42-0.74-2.27  h6.95c-0.19,0.84-0.44,1.6-0.74,2.27C215.67,107.54,214.7,108.59,213.63,109.05L213.63,109.05z M217.3,102.68  c0.13-0.87,0.2-1.82,0.2-2.83c0-1.02-0.07-1.96-0.2-2.83h-7.34c-0.13,0.87-0.2,1.82-0.2,2.83c0,1.02,0.07,1.96,0.2,2.83H217.3  L217.3,102.68z M217.11,95.98h-6.95c0.19-0.84,0.44-1.6,0.74-2.27c0.7-1.56,1.67-2.61,2.74-3.07c1.07,0.46,2.03,1.5,2.74,3.07  C216.67,94.38,216.92,95.14,217.11,95.98L217.11,95.98z M211.59,108.86c-0.63-0.63-1.19-1.45-1.64-2.46  c-0.35-0.79-0.64-1.69-0.85-2.69h-3.86c0.46,1,1.09,1.9,1.86,2.67C208.31,107.59,209.86,108.47,211.59,108.86L211.59,108.86z   M208.92,102.68c-0.13-0.88-0.19-1.82-0.19-2.83c0-1.01,0.07-1.96,0.19-2.83h-4.08c-0.29,0.89-0.44,1.85-0.44,2.83  s0.16,1.94,0.44,2.83H208.92L208.92,102.68z M223.29,103.36c0,0.01-0.01,0.02-0.01,0.03c-0.52,1.41-1.34,2.68-2.38,3.72  c-1.86,1.86-4.43,3.01-7.26,3.01c-2.84,0-5.4-1.15-7.26-3.01c-1.04-1.04-1.86-2.31-2.38-3.72l0-0.01l0,0l0-0.01h0  c-0.4-1.1-0.62-2.28-0.62-3.52c0-2.84,1.15-5.4,3.01-7.26c1.86-1.86,4.43-3.01,7.26-3.01c2.84,0,5.4,1.15,7.26,3.01  c1.04,1.04,1.86,2.31,2.38,3.72l0,0.01l0,0l0,0.01l0,0c0.4,1.1,0.62,2.28,0.62,3.52C223.91,101.08,223.69,102.26,223.29,103.36z"></path>
<path class="st16" d="M159.29,60.55v3.85c0,0.2-0.16,0.37-0.37,0.37h-1.06l2.5,3.71l2.5-3.71h-1.05c-0.2,0-0.37-0.16-0.37-0.37  v-3.85c0-0.12-0.05-0.24-0.13-0.32c-0.08-0.08-0.19-0.13-0.32-0.13h-1.25c-0.12,0-0.24,0.05-0.32,0.13  C159.34,60.32,159.29,60.43,159.29,60.55L159.29,60.55z M154.79,72.55h11.15c0.12,0,0.24-0.05,0.32-0.13  c0.08-0.08,0.13-0.19,0.13-0.32v-1.9c0-0.12-0.05-0.24-0.13-0.32c-0.08-0.08-0.19-0.13-0.32-0.13h-0.4c-0.12,0-0.24,0.05-0.32,0.13  c-0.08,0.08-0.13,0.19-0.13,0.32v0.68c0,0.2-0.17,0.37-0.37,0.37h-8.7c-0.2,0-0.37-0.17-0.37-0.37v-0.68c0-0.12-0.05-0.24-0.13-0.32  c-0.08-0.08-0.19-0.13-0.32-0.13h-0.4c-0.12,0-0.24,0.05-0.32,0.13c-0.08,0.08-0.13,0.19-0.13,0.32v1.9c0,0.12,0.05,0.24,0.13,0.32  C154.55,72.5,154.67,72.55,154.79,72.55L154.79,72.55z M165.94,73.28h-11.15c-0.33,0-0.62-0.13-0.84-0.35  c-0.22-0.22-0.35-0.51-0.35-0.84v-1.9c0-0.33,0.13-0.62,0.35-0.84c0.21-0.21,0.51-0.35,0.84-0.35h0.4c0.33,0,0.62,0.13,0.84,0.35  l0,0c0.21,0.22,0.35,0.51,0.35,0.84v0.31h7.97v-0.31c0-0.33,0.13-0.62,0.35-0.84c0.21-0.21,0.51-0.35,0.84-0.35h0.4  c0.33,0,0.62,0.13,0.84,0.35l0,0c0.22,0.22,0.35,0.51,0.35,0.84v1.9c0,0.33-0.13,0.62-0.35,0.84l0,0  C166.56,73.15,166.26,73.28,165.94,73.28L165.94,73.28z M158.55,64.03v-3.48c0-0.33,0.13-0.62,0.35-0.84  c0.22-0.21,0.51-0.35,0.84-0.35h1.25c0.33,0,0.62,0.13,0.84,0.35l0,0c0.21,0.22,0.35,0.51,0.35,0.84v3.48h1.38v0  c0.07,0,0.14,0.02,0.2,0.06c0.17,0.11,0.21,0.34,0.1,0.51l-3.19,4.73c-0.03,0.04-0.06,0.08-0.1,0.11c-0.17,0.11-0.4,0.07-0.51-0.1  l-3.17-4.71c-0.05-0.06-0.08-0.14-0.08-0.23c0-0.2,0.17-0.37,0.37-0.37H158.55z"></path>
</svg>