<?xml version="1.0" encoding="utf-8"?>
<!-- Generator: Adobe Illustrator 22.1.0, SVG Export Plug-In . SVG Version: 6.00 Build 0)  -->
<svg version="1.1" id="Layer_1" xmlns="http://www.w3.org/2000/svg" xmlns:xlink="http://www.w3.org/1999/xlink" x="0px" y="0px"
	 viewBox="0 0 280 82" style="enable-background:new 0 0 280 82;" xml:space="preserve">
<style type="text/css">
	.st0{fill:#4780BD;}
	.st1{fill:#ABCEEB;}
</style>
<g>
	<path class="st0" d="M257.5,22.8v-1.7h22.7c-0.2-1.8-1.2-3.5-2.9-4.5l-17-9.9c-1.8-1-4-1-5.8,0l-17,9.9c-1.8,1-2.9,3-2.9,5v19.7
		c0,2.1,1.1,4,2.9,5l9.3,5.4V28.3l7,0v27.7l0.7,0.4c1.8,1,4,1,5.8,0l5.1-2.9V22.8H257.5z M250.4,25c-1.7,0-3.1-1.4-3.1-3.1
		c0-1.7,1.4-3.1,3.1-3.1s3.1,1.4,3.1,3.1C253.5,23.6,252.1,25,250.4,25z M272.5,22.8h7.8v18.6c0,2.1-1.1,4-2.9,5l-4.9,2.9V22.8z"/>
	<g>
		<path class="st0" d="M274,51.1h-0.6v1.8h-0.3v-1.8h-0.6v-0.3h1.5V51.1z M275.9,51.3l-0.5,1.5h-0.2l-0.5-1.5v1.5h-0.3v-2.1h0.4
			l0.6,1.5l0.6-1.5h0.4v2.1h-0.3V51.3z"/>
	</g>
	<path class="st0" d="M19.4,56.6c0-1.7-0.7-3-2-4c-1.3-1-3.3-1.8-6-2.4c-2.7-0.6-4.8-1.2-6.3-2c-1.5-0.7-2.6-1.6-3.3-2.7
		c-0.7-1.1-1.1-2.4-1.1-3.9c0-2.4,1-4.4,3-5.9c2-1.6,4.6-2.3,7.7-2.3c3.4,0,6.1,0.8,8.1,2.5c2,1.7,3.1,3.9,3.1,6.6h-3.4
		c0-1.8-0.7-3.3-2.2-4.4c-1.5-1.2-3.4-1.8-5.6-1.8c-2.2,0-4,0.5-5.3,1.5c-1.3,1-2,2.3-2,3.8c0,1.5,0.6,2.7,1.7,3.5
		c1.1,0.8,3.1,1.6,6.1,2.3c2.9,0.7,5.1,1.4,6.6,2.2c1.5,0.8,2.6,1.7,3.3,2.8c0.7,1.1,1.1,2.4,1.1,4c0,2.6-1,4.6-3.1,6.2
		c-2.1,1.5-4.8,2.3-8.1,2.3C8,64.9,5.2,64,3,62.3c-2.2-1.7-3.3-3.9-3.3-6.5H3c0.1,2,1,3.5,2.5,4.6c1.5,1.1,3.5,1.6,6,1.6
		c2.3,0,4.2-0.5,5.7-1.5C18.7,59.5,19.4,58.2,19.4,56.6z"/>
	<path class="st0" d="M33,33.9l0.1,5.2c1.1-1.9,2.6-3.3,4.3-4.3c1.7-1,3.6-1.5,5.6-1.5c3.3,0,5.7,0.9,7.3,2.8
		c1.6,1.8,2.4,4.6,2.4,8.3v19.9h-3.3v-20c0-2.7-0.6-4.7-1.7-6.1c-1.1-1.3-2.9-2-5.4-2c-2.1,0-3.9,0.7-5.5,2
		c-1.6,1.3-2.8,3.1-3.5,5.3v20.8h-3.3V33.9H33z"/>
	<path class="st0" d="M80.3,64.3c-0.3-1-0.6-2.4-0.6-4.2c-1.2,1.5-2.7,2.7-4.5,3.6c-1.8,0.8-3.8,1.2-5.8,1.2c-2.9,0-5.3-0.8-7.1-2.4
		c-1.8-1.6-2.7-3.7-2.7-6.2c0-3,1.2-5.3,3.7-7c2.5-1.7,5.9-2.6,10.3-2.6h6.1v-3.5c0-2.2-0.7-3.9-2-5.1c-1.3-1.2-3.3-1.9-5.8-1.9
		c-2.3,0-4.3,0.6-5.8,1.8c-1.5,1.2-2.3,2.6-2.3,4.3l-3.4,0c0-2.4,1.1-4.5,3.4-6.3c2.2-1.8,5-2.7,8.3-2.7c3.4,0,6,0.8,8,2.5
		c2,1.7,3,4.1,3,7.1v14.4c0,2.9,0.3,5.1,0.9,6.6v0.3H80.3z M69.7,61.9c2.2,0,4.2-0.5,6-1.6s3-2.5,3.9-4.4v-6.7h-6
		c-3.3,0-6,0.7-7.8,1.8c-1.9,1.2-2.8,2.8-2.8,4.9c0,1.7,0.6,3.1,1.9,4.2C66.1,61.3,67.7,61.9,69.7,61.9z"/>
	<path class="st0" d="M116.3,49.4c0,4.7-1,8.5-3.1,11.3c-2.1,2.8-4.9,4.2-8.4,4.2c-4.1,0-7.3-1.5-9.5-4.4V76h-3.3V33.9H95l0.2,4.3
		c2.2-3.2,5.4-4.9,9.5-4.9c3.6,0,6.5,1.4,8.5,4.1c2.1,2.8,3.1,6.6,3.1,11.5V49.4z M112.9,48.8c0-3.9-0.8-6.9-2.4-9.2
		c-1.6-2.2-3.8-3.4-6.6-3.4c-2.1,0-3.8,0.5-5.3,1.5c-1.5,1-2.6,2.4-3.4,4.3v14.6c0.8,1.7,2,3.1,3.4,4c1.5,0.9,3.3,1.4,5.3,1.4
		c2.8,0,5-1.1,6.6-3.4C112.1,56.4,112.9,53.1,112.9,48.8z"/>
	<path class="st1" d="M128.9,26.1v7.8h6.3v2.8h-6.3V57c0,1.7,0.3,2.9,0.9,3.8c0.6,0.8,1.6,1.2,3,1.2c0.6,0,1.5-0.1,2.7-0.3l0.1,2.7
		c-0.9,0.3-2.1,0.5-3.6,0.5c-2.3,0-4-0.7-5-2c-1-1.3-1.6-3.3-1.6-5.9V36.7H120v-2.8h5.6v-7.8H128.9z"/>
	<path class="st1" d="M153.6,64.9c-2.6,0-4.9-0.6-7-1.9c-2.1-1.3-3.7-3-4.9-5.3c-1.2-2.3-1.7-4.8-1.7-7.7v-1.2
		c0-2.9,0.6-5.6,1.7-7.9c1.1-2.3,2.7-4.2,4.7-5.5c2-1.3,4.2-2,6.6-2c3.7,0,6.6,1.3,8.8,3.8c2.2,2.5,3.2,6,3.2,10.3v1.9h-21.6V50
		c0,3.4,1,6.3,3,8.6c2,2.3,4.5,3.4,7.4,3.4c1.8,0,3.4-0.3,4.7-1c1.4-0.7,2.6-1.7,3.7-3.1l2.1,1.6C161.9,63.1,158.3,64.9,153.6,64.9z
		 M153,36.2c-2.5,0-4.6,0.9-6.4,2.8c-1.7,1.9-2.8,4.3-3.2,7.5h18.2v-0.4c-0.1-2.9-0.9-5.3-2.5-7.1C157.6,37.1,155.5,36.2,153,36.2z"
		/>
	<path class="st1" d="M183,62c2.3,0,4.3-0.7,5.9-2c1.6-1.3,2.4-3,2.6-5.1h3.2c-0.1,1.9-0.7,3.5-1.7,5.1c-1.1,1.5-2.5,2.7-4.2,3.6
		c-1.8,0.9-3.7,1.3-5.7,1.3c-4,0-7.1-1.4-9.5-4.2c-2.3-2.8-3.5-6.5-3.5-11.2v-1c0-3,0.5-5.6,1.6-7.9c1-2.3,2.5-4.1,4.5-5.3
		c2-1.3,4.2-1.9,6.9-1.9c3.3,0,6.1,1,8.2,3c2.2,2,3.3,4.6,3.5,7.8h-3.2c-0.1-2.4-1-4.3-2.6-5.8c-1.6-1.5-3.5-2.2-5.9-2.2
		c-3,0-5.4,1.1-7,3.3c-1.7,2.2-2.5,5.3-2.5,9.2v1c0,3.9,0.8,6.9,2.5,9.1C177.6,61,179.9,62,183,62z"/>
	<path class="st1" d="M204.6,39.1c1.1-1.8,2.5-3.2,4.2-4.2c1.7-1,3.6-1.5,5.6-1.5c3.3,0,5.7,0.9,7.3,2.8c1.6,1.8,2.4,4.6,2.4,8.3
		v19.9h-3.3v-20c0-2.7-0.6-4.7-1.7-6.1c-1.1-1.3-2.9-2-5.4-2c-2.1,0-3.9,0.7-5.5,2c-1.6,1.3-2.8,3.1-3.5,5.3v20.8h-3.3V21.2h3.3
		V39.1z"/>
</g>
</svg>
